# Blender v2.90.0 OBJ File: 'laneira_prototipo.blend'
# www.blender.org
mtllib 1piso.mtl
o pilares_1andar.006_Plane.022
v 20.143137 3.846311 9.990047
v 20.143137 3.846311 -1.487811
v 20.143137 3.694736 9.990047
v 20.143137 3.694736 -1.487811
v 6.403471 3.846311 9.990047
v 6.403471 3.694736 9.990047
v 10.080146 3.846311 9.990047
v 10.080146 3.694736 9.990047
v 10.080146 3.846311 -1.487811
v 10.080146 3.694736 -1.487811
v 20.143137 3.846311 3.946948
v 20.143137 3.694736 3.946948
v 6.403471 3.694736 3.946948
v 6.403471 3.846311 3.946948
v 10.080146 3.694736 3.946948
v 10.080146 3.846311 3.946948
vt -1.557766 -1.526947
vt 1.769268 -6.027823
vt 4.020521 -4.363704
vt 0.693487 0.137172
vt 2.944741 1.801293
vt 0.693488 0.137173
vt 4.020522 -4.363703
vt 6.271775 -2.699584
vt 6.839836 1.900122
vt 6.902625 1.946536
vt 5.105781 4.377341
vt 5.042992 4.330928
vt 5.510776 3.698099
vt 5.447989 3.651687
vt 8.775023 -0.849189
vt 8.837811 -0.802777
vt 1.778746 8.878217
vt 1.715959 8.831804
vt 4.295190 5.342566
vt 4.232404 5.296154
vt -5.276598 -1.732872
vt -4.061013 -3.377340
vt -2.773351 0.117520
vt 1.729156 3.445760
vt 8.900600 -0.756363
vt -0.733979 -7.878217
vt -6.303823 0.050832
vt -6.366609 0.004420
vt -5.151023 -1.640048
vt -5.088236 -1.593636
vt -5.213812 -1.686461
vt -5.151024 -1.640049
vt -6.947868 0.790758
vt -7.010656 0.744345
vt -5.213812 -1.686461
vt -7.211787 1.016437
vt -7.274574 0.970025
vt -5.276600 -1.732873
vn 0.0000 1.0000 0.0000
vn 0.0000 -1.0000 0.0000
vn 1.0000 0.0000 0.0000
vn 0.0000 0.0000 1.0000
vn 0.0000 0.0000 -1.0000
vn -1.0000 0.0000 0.0000
usemtl Gesso
s off
f 16/1/1 11/2/1 2/3/1 9/4/1
f 15/5/2 10/6/2 4/7/2 12/8/2
f 11/9/3 12/10/3 4/11/3 2/12/3
f 7/13/4 8/14/4 3/15/4 1/16/4
f 2/12/5 4/11/5 10/17/5 9/18/5
f 5/19/4 6/20/4 8/14/4 7/13/4
f 5/21/1 7/22/1 16/1/1 14/23/1
f 6/20/2 13/24/2 15/5/2 8/14/2
f 1/16/3 3/25/3 12/10/3 11/9/3
f 8/14/2 15/5/2 12/8/2 3/15/2
f 7/22/1 1/26/1 11/2/1 16/1/1
f 16/27/5 15/28/5 13/29/5 14/30/5
f 9/31/6 10/32/6 15/33/6 16/34/6
f 13/35/6 6/36/6 5/37/6 14/38/6
