# Blender v2.90.0 OBJ File: 'laneira_prototipo.blend'
# www.blender.org
mtllib madeiras02.mtl
o pilares_1andar.013_Plane.006
v 20.013906 -0.918981 -0.865544
v 20.013906 -0.918981 -1.234697
v 19.871248 -0.918981 -0.865544
v 19.871248 -0.918981 -1.234697
v 20.013906 3.764926 -0.865544
v 20.013906 3.764926 -1.234696
v 19.871248 3.764926 -0.865544
v 19.871248 3.764926 -1.234696
v 10.126688 -0.566763 3.959052
v 9.572833 -0.566763 3.959052
v 10.126688 -0.566763 4.181960
v 9.572833 -0.566763 4.181960
v 15.870790 -0.566763 4.161245
v 16.100319 -0.566763 4.161245
v 15.870790 -0.566763 3.967848
v 16.100319 -0.566763 3.967848
v 19.969772 -0.566763 4.161245
v 20.199303 -0.566763 4.161245
v 19.969772 -0.566763 3.967848
v 20.199303 -0.566763 3.967848
v 24.003206 -0.566763 4.161245
v 24.232731 -0.566763 4.161245
v 24.003206 -0.566763 3.967848
v 24.232731 -0.566763 3.967848
v 27.643133 -0.566763 4.161245
v 27.872665 -0.566763 4.161245
v 27.643133 -0.566763 3.967848
v 27.872665 -0.566763 3.967848
v 31.678555 -0.566763 4.161245
v 31.908087 -0.566763 4.161245
v 31.678555 -0.566763 3.967848
v 31.908087 -0.566763 3.967848
v 33.397892 -0.566763 4.305909
v 33.850544 -0.566763 4.305909
v 33.397892 -0.566763 3.926187
v 33.850544 -0.566763 3.926187
v 10.126688 3.189804 3.959052
v 9.572833 3.189804 3.959052
v 9.572833 3.189804 4.181206
v 15.870790 3.193120 4.161245
v 16.100319 3.193120 4.161245
v 16.100319 3.193120 3.967848
v 19.969772 3.193120 4.161245
v 20.199303 3.193120 4.161245
v 20.199303 3.193120 3.967848
v 24.003206 3.193120 4.161245
v 24.232731 3.193120 4.161245
v 24.232731 3.193120 3.967848
v 27.643133 3.193120 4.161245
v 27.872665 3.193120 4.161245
v 27.872665 3.193120 3.967848
v 31.678555 3.193120 4.161245
v 31.908087 3.193120 4.161245
v 31.908087 3.193120 3.967848
v 33.397892 3.193120 4.305909
v 33.850544 3.193120 4.305909
v 33.850544 3.193120 3.926187
v 10.126688 3.189804 4.181960
v 15.870790 3.193120 3.967848
v 19.969772 3.193120 3.967848
v 24.003206 3.193120 3.967848
v 27.643133 3.193120 3.967848
v 31.678555 3.193120 3.967848
v 33.397892 3.193120 3.926187
vt 0.614813 0.784400
vt 0.614813 0.827532
vt 0.500513 0.827532
vt 0.500513 0.784400
vt 0.500513 0.602200
vt 0.614813 0.602200
vt 0.614813 0.645332
vt 0.500513 0.645332
vt 0.786617 -0.663651
vt 0.786617 -0.620519
vt -0.663650 -0.620519
vt -0.663650 -0.663651
vt -0.663651 1.217133
vt -0.663651 1.105523
vt 0.786617 1.105523
vt 0.786617 1.217133
vt 0.786618 -0.620519
vt 0.786618 -0.577387
vt -0.663650 -0.577387
vt -0.663650 -0.620519
vt -0.663651 1.328744
vt -0.663651 1.217133
vt 0.786618 1.217134
vt 0.786617 1.328743
vt 0.672002 0.717006
vt 0.672002 0.784401
vt 0.500513 0.784400
vt 0.500513 0.717006
vt 0.571583 0.521878
vt 0.571583 0.463405
vt 0.642652 0.463405
vt 0.642652 0.521878
vt 0.571583 0.591275
vt 0.571583 0.532803
vt 0.642652 0.532803
vt 0.642652 0.591275
vt 0.642650 0.346461
vt 0.642650 0.404933
vt 0.571583 0.404933
vt 0.571583 0.346461
vt 0.500514 0.521878
vt 0.500514 0.463406
vt 0.571583 0.463406
vt 0.571583 0.521878
vt 0.500514 0.591275
vt 0.500514 0.532803
vt 0.571583 0.532803
vt 0.571583 0.591275
vt 0.499487 1.328744
vt 0.499487 1.496197
vt -0.663651 1.496197
vt -0.663651 1.328744
vt 0.499487 -0.226553
vt 0.499487 -0.159158
vt -0.663650 -0.159386
vt -0.663651 -0.226553
vt 0.499487 1.496197
vt 0.499487 1.663651
vt -0.663651 1.663651
vt -0.663651 1.496197
vt 0.499487 -0.159158
vt 0.499487 -0.091764
vt -0.663650 -0.091764
vt -0.663650 -0.159159
vt 0.500514 0.116422
vt 0.500514 0.185818
vt -0.663650 0.185817
vt -0.663651 0.116421
vt 0.500514 -0.401970
vt 0.500514 -0.343498
vt -0.663650 -0.343497
vt -0.663650 -0.401970
vt -0.663651 0.116421
vt -0.663651 0.047026
vt 0.500513 0.047026
vt 0.500514 0.116422
vt 0.500514 -0.518915
vt 0.500514 -0.460442
vt -0.663650 -0.460442
vt -0.663651 -0.518915
vt 0.500514 0.324611
vt 0.500514 0.394008
vt -0.663651 0.394008
vt -0.663651 0.324611
vt 0.499487 1.546706
vt 0.499487 1.488234
vt 1.663651 1.488234
vt 1.663651 1.546706
vt -0.663651 0.255214
vt -0.663650 0.185817
vt 0.500514 0.185818
vt 0.500514 0.255214
vt 0.500514 -0.343497
vt 0.500514 -0.285025
vt -0.663650 -0.285025
vt -0.663651 -0.343497
vt 0.500514 -0.022369
vt 0.500514 0.047026
vt -0.663651 0.047026
vt -0.663651 -0.022369
vt 0.500514 -0.577387
vt 0.500514 -0.518915
vt -0.663650 -0.518915
vt -0.663650 -0.577387
vt -0.663650 -0.022369
vt -0.663650 -0.091764
vt 0.500514 -0.091764
vt 0.500513 -0.022369
vt 0.500514 -0.285025
vt 0.500514 -0.226553
vt -0.663650 -0.226553
vt -0.663651 -0.285025
vt 0.500514 0.255214
vt 0.500514 0.324611
vt -0.663651 0.324611
vt -0.663651 0.255214
vt 1.663650 1.429762
vt 1.663650 1.488234
vt 0.499487 1.488234
vt 0.499487 1.429762
vt 0.500514 0.394008
vt 0.500513 0.463406
vt -0.663650 0.463405
vt -0.663651 0.394008
vt 1.663650 1.605178
vt 1.663650 1.663650
vt 0.499487 1.663651
vt 0.499487 1.605178
vt 0.500514 0.463406
vt -0.663651 0.532803
vt -0.663651 0.463405
vt 0.499487 1.605178
vt 0.499487 1.546706
vt 1.663650 1.546706
vt 1.663650 1.605178
vt 0.500513 0.532803
vt 0.500513 0.602200
vt -0.663651 0.602200
vt -0.663651 0.532803
vt 0.500514 -0.460442
vt 0.500513 -0.401970
vt -0.663650 -0.401970
vt -0.663651 -0.460442
vt 0.500514 0.968668
vt 0.500514 0.853862
vt 0.640667 0.853862
vt 0.640667 0.968668
vt 0.500513 0.717006
vt 0.500513 0.831812
vt -0.663651 0.831812
vt -0.663651 0.717006
vt 0.500513 0.831812
vt 0.500513 0.968668
vt -0.663651 0.968668
vt -0.663651 0.831812
vt -0.663651 1.105523
vt -0.663651 0.968668
vt 0.500513 0.968668
vt 0.500513 1.105522
vt 0.500514 1.105523
vt 0.500514 0.990717
vt 0.640667 0.990717
vt 0.640667 1.105523
vt 0.670975 1.429762
vt 0.499487 1.429762
vt 0.499487 1.362595
vt 0.670975 1.362367
vt 0.571582 0.404933
vt 0.500514 0.404933
vt 0.500514 0.346461
vt 0.571582 0.346461
vt 0.642652 0.703804
vt 0.571583 0.703804
vt 0.571583 0.645332
vt 0.642652 0.645332
vt 0.614813 0.784400
vt 0.685880 0.784401
vt 0.685880 0.842873
vt 0.614813 0.842873
vt 0.571583 0.703804
vt 0.500513 0.703804
vt 0.500513 0.645332
vt 0.571583 0.645332
vt 0.571583 0.463406
vt 0.500514 0.463406
vt 0.500514 0.404933
vt 0.571583 0.404933
vt 0.500513 0.602200
vt 0.500513 0.717006
vt -0.663651 0.717006
vt -0.663651 0.602201
vn 0.0000 -1.0000 0.0000
vn 0.0000 1.0000 0.0000
vn 0.0000 0.0000 1.0000
vn 1.0000 0.0000 0.0000
vn 0.0000 0.0000 -1.0000
vn -1.0000 0.0000 0.0000
vn -0.0007 0.0001 1.0000
usemtl Madeira
s off
f 1/1/1 3/2/1 4/3/1 2/4/1
f 5/5/2 6/6/2 8/7/2 7/8/2
f 3/9/3 1/10/3 5/11/3 7/12/3
f 1/13/4 2/14/4 6/15/4 5/16/4
f 2/17/5 4/18/5 8/19/5 6/20/5
f 4/21/6 3/22/6 7/23/6 8/24/6
f 9/25/1 11/26/1 12/27/1 10/28/1
f 13/29/1 15/30/1 16/31/1 14/32/1
f 17/33/1 19/34/1 20/35/1 18/36/1
f 21/37/1 23/38/1 24/39/1 22/40/1
f 25/41/1 27/42/1 28/43/1 26/44/1
f 29/45/1 31/46/1 32/47/1 30/48/1
f 12/49/7 11/50/7 58/51/7 39/52/7
f 10/53/6 12/54/6 39/55/6 38/56/6
f 9/57/5 10/58/5 38/59/5 37/60/5
f 11/61/4 9/62/4 37/63/4 58/64/4
f 16/65/5 15/66/5 59/67/5 42/68/5
f 14/69/4 16/70/4 42/71/4 41/72/4
f 13/73/3 14/74/3 41/75/3 40/76/3
f 15/77/6 13/78/6 40/79/6 59/80/6
f 20/81/5 19/82/5 60/83/5 45/84/5
f 18/85/4 20/86/4 45/87/4 44/88/4
f 17/89/3 18/90/3 44/91/3 43/92/3
f 19/93/6 17/94/6 43/95/6 60/96/6
f 24/97/5 23/98/5 61/99/5 48/100/5
f 22/101/4 24/102/4 48/103/4 47/104/4
f 21/105/3 22/106/3 47/107/3 46/108/3
f 23/109/6 21/110/6 46/111/6 61/112/6
f 28/113/5 27/114/5 62/115/5 51/116/5
f 26/117/4 28/118/4 51/119/4 50/120/4
f 25/121/3 26/122/3 50/123/3 49/124/3
f 27/125/6 25/126/6 49/127/6 62/128/6
f 32/129/5 31/46/5 63/130/5 54/131/5
f 30/132/4 32/133/4 54/134/4 53/135/4
f 29/136/3 30/137/3 53/138/3 52/139/3
f 31/140/6 29/141/6 52/142/6 63/143/6
f 64/144/2 55/145/2 56/146/2 57/147/2
f 35/148/6 33/149/6 55/150/6 64/151/6
f 36/152/5 35/153/5 64/154/5 57/155/5
f 33/156/3 34/157/3 56/158/3 55/159/3
f 33/160/1 35/161/1 36/162/1 34/163/1
f 37/164/2 38/165/2 39/166/2 58/167/2
f 42/168/2 59/169/2 40/170/2 41/171/2
f 45/172/2 60/173/2 43/174/2 44/175/2
f 48/176/2 61/177/2 46/178/2 47/179/2
f 51/180/2 62/181/2 49/182/2 50/183/2
f 54/184/2 63/185/2 52/186/2 53/187/2
f 34/188/4 36/189/4 57/190/4 56/191/4
