# Blender v2.90.0 OBJ File: 'laneira_prototipo.blend'
# www.blender.org
mtllib parede03.mtl
o pilares_1andar.002_Plane.018
v 39.922649 -0.014857 -1.170830
v 39.922649 0.994432 -1.170830
v 39.922649 2.990612 -1.170830
v 39.922649 -0.516602 -1.170830
v 39.922649 4.888065 -1.170830
v 39.922649 7.586452 -1.170830
v 39.922649 6.890370 -1.170830
v 33.540142 -0.014857 -1.494476
v 33.540142 -0.014857 -1.170830
v 31.347464 0.037288 -1.494476
v 31.347464 0.037288 -1.170830
v 33.540142 0.994432 -1.170830
v 33.540142 0.994432 -1.494476
v 33.540142 2.699603 -1.170830
v 33.540142 2.699603 -1.494476
v 33.540142 -0.516602 -1.494476
v 33.540142 -0.516602 -1.170830
v 31.347464 -0.516602 -1.494476
v 31.347464 -0.516602 -1.170830
v 16.122622 0.037288 -1.170830
v 31.347464 2.695593 -1.170830
v 31.347464 2.695593 -1.494476
v 16.122622 -0.516602 -1.170830
v 16.122622 3.198784 -1.170830
v 33.694138 4.888065 -1.494476
v 33.694138 4.888065 -1.170830
v 31.693855 4.888065 -1.494476
v 31.693855 4.888065 -1.170830
v 16.122622 4.888065 -1.170830
v 16.122622 4.888065 -1.494476
v 33.540142 7.586452 -1.170830
v 31.347464 7.586452 -1.170830
v 16.122622 7.586452 -1.170830
v 33.694138 6.890370 -1.494476
v 31.693855 6.890370 -1.494476
v 33.694138 6.890370 -1.170830
v 16.122622 6.890370 -1.170830
v 31.693855 6.890370 -1.170830
v 16.122622 6.890370 -1.494476
v 7.044077 4.888065 -1.494476
v 7.044077 6.890370 -1.494476
v 7.044077 0.037288 -1.170830
v 7.044077 -0.516602 -1.170830
v 7.044077 3.225689 -1.170830
v 7.044077 4.888065 -1.170830
v 7.044077 7.586452 -1.170830
v 7.044077 6.890370 -1.170830
v 9.039093 4.888065 -1.494476
v 9.039093 6.890370 -1.494476
v 9.039093 0.037288 -1.170830
v 9.039093 -0.516602 -1.170830
v 9.039093 3.220264 -1.170830
v 9.039093 4.888065 -1.170830
v 9.039093 7.586452 -1.170830
v 9.039093 6.890370 -1.170830
v 11.732218 4.888065 -1.494476
v 11.732218 6.890370 -1.494476
v 11.732218 0.037288 -1.170830
v 11.732218 -0.516602 -1.170830
v 11.732218 3.212941 -1.170830
v 11.732218 4.888065 -1.170830
v 11.732218 7.586452 -1.170830
v 11.732218 6.890370 -1.170830
v 13.732689 4.888065 -1.494476
v 13.732689 6.890370 -1.494476
v 13.732689 0.037288 -1.170830
v 13.732689 -0.516602 -1.170830
v 13.732689 3.207412 -1.170830
v 13.732689 4.888065 -1.170830
v 13.732689 7.586452 -1.170830
v 13.732689 6.890370 -1.170830
v 18.123840 -0.516602 -1.170830
v 18.123840 0.037288 -1.170830
v 18.123840 3.131631 -1.170830
v 18.123840 4.888065 -1.494476
v 18.123840 4.888065 -1.170830
v 18.123840 7.586452 -1.170830
v 18.123840 6.890370 -1.170830
v 18.123840 6.890370 -1.494476
v 20.042957 4.888065 -1.494476
v 20.042957 6.890370 -1.494476
v 20.042957 -0.516602 -1.170830
v 20.042957 0.037288 -1.170830
v 20.042957 3.068350 -1.170830
v 20.042957 4.888065 -1.170830
v 20.042957 7.586452 -1.170830
v 20.042957 6.890370 -1.170830
v 22.042870 4.888065 -1.494476
v 22.042870 6.890370 -1.494476
v 22.042870 -0.516602 -1.170830
v 22.042870 0.037288 -1.170830
v 22.042870 3.001429 -1.170830
v 22.042870 4.888065 -1.170830
v 22.042870 7.586452 -1.170830
v 22.042870 6.890370 -1.170830
v 23.889214 4.888065 -1.494476
v 23.889214 6.890370 -1.494476
v 23.889214 -0.516602 -1.170830
v 23.889214 0.037288 -1.170830
v 23.889214 2.940937 -1.170830
v 23.889214 4.888065 -1.170830
v 23.889214 7.586452 -1.170830
v 23.889214 6.890370 -1.170830
v 25.885662 4.888065 -1.494476
v 25.885662 6.890370 -1.494476
v 25.885662 -0.516602 -1.170830
v 25.885662 0.037288 -1.170830
v 25.885662 2.874922 -1.170830
v 25.885662 4.888065 -1.170830
v 25.885662 7.586452 -1.170830
v 25.885662 6.890370 -1.170830
v 27.815706 4.888065 -1.494476
v 27.815706 6.890370 -1.494476
v 27.815706 -0.516602 -1.170830
v 27.815706 0.037288 -1.170830
v 27.815706 2.811691 -1.170830
v 27.815706 4.888065 -1.170830
v 27.815706 7.586452 -1.170830
v 27.815706 6.890370 -1.170830
v 29.819950 4.888065 -1.494476
v 29.819950 6.890370 -1.494476
v 29.819950 -0.516602 -1.170830
v 29.819950 0.037288 -1.170830
v 29.819950 2.745608 -1.170830
v 29.819950 4.888065 -1.170830
v 29.819950 7.586452 -1.170830
v 29.819950 6.890370 -1.170830
v 35.731857 -0.014857 -1.170830
v 35.731857 0.994432 -1.170830
v 35.731857 2.845107 -1.170830
v 35.731857 -0.516601 -1.170830
v 35.731857 4.888065 -1.494476
v 35.731857 4.888065 -1.170830
v 35.731857 7.586452 -1.170830
v 35.731857 6.890370 -1.494476
v 35.731857 6.890370 -1.170830
v 37.731701 4.888065 -1.170830
v 37.731701 7.586452 -1.170830
v 37.731701 6.890370 -1.494476
v 37.731701 0.994432 -1.170830
v 37.731701 2.917860 -1.170830
v 37.731701 4.888065 -1.494476
v 37.731701 6.890370 -1.170830
v 37.731705 -0.014857 -1.170830
v 37.731705 -0.516601 -1.170830
v 5.570286 0.037288 -1.170830
v 5.570286 -0.516602 -1.170830
v 5.570286 3.225689 -1.170830
v 5.570286 4.888065 -1.170830
v 5.570286 7.586452 -1.170830
v 5.570286 6.890370 -1.170830
vt 7.493956 0.667196
vt 7.493956 1.714172
vt 8.553368 1.714172
vt 8.553368 0.705857
vt 0.503446 4.549850
vt 0.503444 5.082229
vt 0.691696 5.082229
vt 0.691696 4.549850
vt 7.493955 -0.354921
vt 8.553367 -0.354921
vt 0.503444 5.981666
vt 0.691696 5.981666
vt 0.691698 4.285190
vt 0.503446 4.285190
vt 6.526953 -0.891262
vt 6.526953 -1.157890
vt 5.467170 -1.157890
vt 5.467170 -0.891262
vt 0.493880 9.050308
vt 0.493880 9.345941
vt 0.683765 9.345941
vt 0.683763 9.050308
vt 0.493880 9.051674
vt 0.683763 9.051674
vt 0.683762 7.632827
vt 0.493880 7.632827
vt -0.017171 6.679410
vt -0.017171 6.867662
vt 1.194811 6.867659
vt 1.194812 6.679411
vt -1.987224 -0.863550
vt -2.954894 -0.863549
vt -2.954894 0.816483
vt -1.987224 0.780797
vt -1.987224 -1.157889
vt -2.954894 -1.157889
vt -4.110520 2.778208
vt -4.110519 3.148109
vt -2.954893 3.148108
vt -2.954893 2.778208
vt 7.493956 2.778205
vt 7.493956 3.148107
vt 8.553368 3.148107
vt 8.553368 2.778205
vt 4.574419 2.778206
vt 4.406925 3.148107
vt 5.467170 3.148107
vt 5.541634 2.778206
vt 3.668311 2.778206
vt 3.668311 3.148107
vt 3.668309 1.714172
vt 4.574419 1.714172
vt -4.110520 1.714174
vt -2.954893 1.714174
vt -6.380062 -0.863549
vt -6.380062 -1.157888
vt -7.344730 -1.157888
vt -7.344730 -0.863549
vt -7.344729 0.830781
vt -6.380061 0.827898
vt -5.077828 -0.863549
vt -5.077828 0.824007
vt -5.077828 -1.157888
vt -7.344729 2.778209
vt -7.344729 3.148110
vt -6.380060 3.148109
vt -6.380061 2.778208
vt -4.110521 -0.863549
vt -4.110521 -1.157889
vt -4.110520 0.821068
vt -6.380061 1.714175
vt -5.077826 2.778208
vt -5.077828 1.714174
vt -5.077826 3.148109
vt -1.987223 3.148108
vt -1.987223 2.778208
vt -1.059256 -0.863550
vt -1.059256 -1.157889
vt -1.059256 0.747169
vt -0.092218 -0.863550
vt -0.092218 0.711607
vt -0.092218 -1.157890
vt -1.987224 1.714174
vt -1.059255 2.778207
vt -1.059255 1.714174
vt -1.059255 3.148108
vt 0.800562 -0.863551
vt 0.800562 -1.157890
vt 0.800562 0.679461
vt -0.092217 3.148108
vt -0.092217 2.778207
vt 1.765925 -0.863551
vt 1.765926 0.644381
vt 1.765925 -1.157890
vt -0.092218 1.714174
vt 0.800563 2.778207
vt 0.800562 1.714173
vt 0.800563 3.148108
vt 2.699178 -0.863551
vt 2.699178 -1.157890
vt 2.699178 0.610779
vt 1.765926 3.148108
vt 1.765926 2.778207
vt 3.668309 -0.863551
vt 3.668309 0.575662
vt 3.668309 -1.157890
vt 1.765926 1.714172
vt 2.699179 2.778207
vt 2.699179 1.714172
vt 2.699179 3.148108
vt 4.406924 -0.863551
vt 4.406924 -1.157890
vt 4.406924 0.549083
vt 5.541634 1.714172
vt 6.526954 2.778205
vt 6.526954 1.714172
vt 6.616976 3.745320
vt 6.616976 3.568098
vt 5.648782 3.568098
vt 5.648782 3.745320
vt 6.526956 3.148107
vt 5.467170 -0.354921
vt 5.467170 0.551214
vt 6.526954 0.628536
vt 6.526953 -0.354921
vt 3.420063 3.390875
vt 4.384733 3.390874
vt 4.384733 3.213652
vt 3.420063 3.213653
vt 7.588698 4.454213
vt 7.588698 4.631434
vt 8.553368 4.631434
vt 8.553368 4.454213
vt 6.616976 3.922544
vt 6.616976 3.745320
vt 5.648782 3.745320
vt 5.648782 3.922544
vt 7.585172 4.099766
vt 6.617866 4.099766
vt 6.617866 4.276989
vt 7.585172 4.276989
vt 5.648782 3.745320
vt 5.648782 3.568098
vt 4.680588 3.568098
vt 4.680588 3.745320
vt 6.616976 4.276989
vt 6.616976 4.099766
vt 5.649670 4.099766
vt 5.649670 4.276989
vt 8.553368 3.745320
vt 8.553368 3.568098
vt 7.585172 3.568098
vt 7.585172 3.745320
vt -0.650000 4.858000
vt -0.650000 5.857457
vt -0.400000 5.857457
vt -0.400000 4.858000
vt -1.150000 4.884610
vt -1.400000 4.884610
vt -1.400000 5.999390
vt -1.150000 5.999390
vt -0.900000 5.857457
vt -0.650000 5.857457
vt -0.650000 4.858000
vt -0.900000 4.858000
vt -0.900000 4.884610
vt -1.150000 4.884610
vt -1.150000 5.999391
vt -0.900000 5.999391
vt 2.559110 6.242430
vt 1.560306 6.242431
vt 1.560306 6.425660
vt 2.559110 6.425660
vt 1.897903 4.905767
vt 1.647903 4.905767
vt 1.647903 5.975148
vt 1.897903 5.975148
vt 1.560306 6.059200
vt 1.560306 6.242430
vt 2.559110 6.242430
vt 2.559110 6.059200
vt 1.647903 4.905767
vt 1.397903 4.905767
vt 1.397903 5.975148
vt 1.647903 5.975148
vt 2.990524 6.443150
vt 3.987597 6.443149
vt 3.987597 6.282233
vt 2.990524 6.282233
vt 2.983505 4.906518
vt 2.733505 4.906518
vt 2.733505 5.982991
vt 2.983505 5.982991
vt 3.987597 6.282232
vt 3.987597 6.121316
vt 2.990524 6.121316
vt 2.990524 6.282233
vt 3.233505 4.892629
vt 2.983505 4.892629
vt 2.983505 5.969100
vt 3.233505 5.969100
vt 4.183612 6.315626
vt 5.183612 6.315626
vt 5.183612 6.155910
vt 4.183612 6.155910
vt 4.461344 4.780838
vt 4.211344 4.780838
vt 4.211344 5.841021
vt 4.461344 5.841021
vt 5.183612 6.155910
vt 5.183612 5.996194
vt 4.183612 5.996194
vt 4.183612 6.155910
vt 4.711344 4.780838
vt 4.461344 4.780838
vt 4.461344 5.841020
vt 4.711344 5.841020
vt 6.307265 6.316773
vt 6.307265 6.151769
vt 5.308275 6.151769
vt 5.308275 6.316774
vt 5.430000 4.780536
vt 5.180000 4.780536
vt 5.180000 5.851464
vt 5.430000 5.851464
vt 6.307265 6.151769
vt 6.307265 5.986764
vt 5.308275 5.986764
vt 5.308275 6.151769
vt 5.680000 4.780536
vt 5.430000 4.780536
vt 5.430000 5.851464
vt 5.680000 5.851464
vt 7.911844 6.340015
vt 7.911844 6.178315
vt 6.913074 6.178315
vt 6.913074 6.340015
vt 6.912459 4.906204
vt 6.662459 4.906204
vt 6.662459 5.962673
vt 6.912459 5.962673
vt 6.913074 6.016614
vt 6.913074 6.178315
vt 7.911844 6.178314
vt 7.911844 6.016614
vt 7.162459 4.906204
vt 6.912459 4.906204
vt 6.912459 5.962673
vt 7.162459 5.962673
vt 7.493956 -0.891262
vt -7.344729 1.714175
vt 7.493956 -1.157890
vt 8.553367 -0.891262
vt 8.553367 -1.157891
vt -8.057364 1.714175
vt -8.057365 2.778209
vt -8.057365 -0.863549
vt -8.057364 0.830781
vt -8.057364 3.148110
vt -8.057365 -1.157888
vn 0.0000 -0.0000 -1.0000
vn 1.0000 0.0000 0.0000
vn -1.0000 0.0000 0.0000
vn -0.0018 1.0000 0.0000
vn 0.0000 -1.0000 0.0000
vn 0.0000 1.0000 0.0000
usemtl Parede
s off
f 141/1/1 137/2/1 5/3/1 3/4/1
f 8/5/2 13/6/2 12/7/2 9/8/2
f 140/9/1 141/1/1 3/4/1 2/10/1
f 13/6/2 15/11/2 14/12/2 12/7/2
f 9/8/2 17/13/2 16/14/2 8/5/2
f 128/15/1 131/16/1 17/17/1 9/18/1
f 10/19/3 18/20/3 19/21/3 11/22/3
f 10/23/3 11/24/3 21/25/3 22/26/3
f 14/27/4 15/28/4 22/29/4 21/30/4
f 73/31/1 20/32/1 24/33/1 74/34/1
f 73/31/1 72/35/1 23/36/1 20/32/1
f 71/37/1 70/38/1 33/39/1 37/40/1
f 143/41/1 138/42/1 6/43/1 7/44/1
f 38/45/1 32/46/1 31/47/1 36/48/1
f 127/49/1 126/50/1 32/46/1 38/45/1
f 125/51/1 127/49/1 38/45/1 28/52/1
f 137/2/1 143/41/1 7/44/1 5/3/1
f 69/53/1 71/37/1 37/40/1 29/54/1
f 50/55/1 51/56/1 43/57/1 42/58/1
f 50/55/1 42/58/1 44/59/1 52/60/1
f 58/61/1 50/55/1 52/60/1 60/62/1
f 58/61/1 59/63/1 51/56/1 50/55/1
f 47/64/1 46/65/1 54/66/1 55/67/1
f 66/68/1 67/69/1 59/63/1 58/61/1
f 66/68/1 58/61/1 60/62/1 68/70/1
f 53/71/1 55/67/1 63/72/1 61/73/1
f 55/67/1 54/66/1 62/74/1 63/72/1
f 20/32/1 66/68/1 68/70/1 24/33/1
f 20/32/1 23/36/1 67/69/1 66/68/1
f 63/72/1 62/74/1 70/38/1 71/37/1
f 37/40/1 33/39/1 77/75/1 78/76/1
f 83/77/1 82/78/1 72/35/1 73/31/1
f 83/77/1 73/31/1 74/34/1 84/79/1
f 91/80/1 83/77/1 84/79/1 92/81/1
f 91/80/1 90/82/1 82/78/1 83/77/1
f 76/83/1 78/76/1 87/84/1 85/85/1
f 78/76/1 77/75/1 86/86/1 87/84/1
f 99/87/1 98/88/1 90/82/1 91/80/1
f 99/87/1 91/80/1 92/81/1 100/89/1
f 87/84/1 86/86/1 94/90/1 95/91/1
f 107/92/1 99/87/1 100/89/1 108/93/1
f 107/92/1 106/94/1 98/88/1 99/87/1
f 93/95/1 95/91/1 103/96/1 101/97/1
f 95/91/1 94/90/1 102/98/1 103/96/1
f 115/99/1 114/100/1 106/94/1 107/92/1
f 115/99/1 107/92/1 108/93/1 116/101/1
f 103/96/1 102/98/1 110/102/1 111/103/1
f 123/104/1 115/99/1 116/101/1 124/105/1
f 123/104/1 122/106/1 114/100/1 115/99/1
f 109/107/1 111/103/1 119/108/1 117/109/1
f 111/103/1 110/102/1 118/110/1 119/108/1
f 11/111/1 19/112/1 122/106/1 123/104/1
f 11/111/1 123/104/1 124/105/1 21/113/1
f 119/108/1 118/110/1 126/50/1 127/49/1
f 26/114/1 36/48/1 136/115/1 133/116/1
f 49/117/2 55/118/2 53/119/2 48/120/2
f 36/48/1 31/47/1 134/121/1 136/115/1
f 12/122/1 14/123/1 130/124/1 129/125/1
f 9/18/1 12/122/1 129/125/1 128/15/1
f 53/126/5 45/127/5 40/128/5 48/129/5
f 136/115/1 134/121/1 138/42/1 143/41/1
f 129/125/1 130/124/1 141/1/1 140/9/1
f 41/130/6 47/131/6 55/132/6 49/133/6
f 40/134/3 45/135/3 47/136/3 41/137/3
f 69/138/5 61/139/5 56/140/5 64/141/5
f 65/142/2 71/143/2 69/144/2 64/145/2
f 57/146/6 63/147/6 71/148/6 65/149/6
f 56/150/3 61/151/3 63/152/3 57/153/3
f 76/154/5 29/155/5 30/156/5 75/157/5
f 79/158/2 78/159/2 76/160/2 75/161/2
f 39/162/6 37/163/6 78/164/6 79/165/6
f 30/166/3 29/167/3 37/168/3 39/169/3
f 93/170/5 85/171/5 80/172/5 88/173/5
f 89/174/2 95/175/2 93/176/2 88/177/2
f 81/178/6 87/179/6 95/180/6 89/181/6
f 80/182/3 85/183/3 87/184/3 81/185/3
f 109/186/5 101/187/5 96/188/5 104/189/5
f 105/190/2 111/191/2 109/192/2 104/193/2
f 97/194/6 103/195/6 111/196/6 105/197/6
f 96/198/3 101/199/3 103/200/3 97/201/3
f 125/202/5 117/203/5 112/204/5 120/205/5
f 121/206/2 127/207/2 125/208/2 120/209/2
f 113/210/6 119/211/6 127/212/6 121/213/6
f 112/214/3 117/215/3 119/216/3 113/217/3
f 28/218/5 27/219/5 25/220/5 26/221/5
f 34/222/2 36/223/2 26/224/2 25/225/2
f 35/226/6 38/227/6 36/228/6 34/229/6
f 27/230/3 28/231/3 38/232/3 35/233/3
f 142/234/5 137/235/5 133/236/5 132/237/5
f 139/238/2 143/239/2 137/240/2 142/241/2
f 135/242/6 136/243/6 143/244/6 139/245/6
f 132/246/3 133/247/3 136/248/3 135/249/3
f 140/9/1 144/250/1 128/15/1 129/125/1
f 130/124/1 133/116/1 137/2/1 141/1/1
f 14/123/1 26/114/1 133/116/1 130/124/1
f 21/113/1 28/52/1 26/114/1 14/123/1
f 124/105/1 125/51/1 28/52/1 21/113/1
f 116/101/1 117/109/1 125/51/1 124/105/1
f 108/93/1 109/107/1 117/109/1 116/101/1
f 100/89/1 101/97/1 109/107/1 108/93/1
f 92/81/1 93/95/1 101/97/1 100/89/1
f 84/79/1 85/85/1 93/95/1 92/81/1
f 74/34/1 76/83/1 85/85/1 84/79/1
f 24/33/1 29/54/1 76/83/1 74/34/1
f 68/70/1 69/53/1 29/54/1 24/33/1
f 60/62/1 61/73/1 69/53/1 68/70/1
f 52/60/1 53/71/1 61/73/1 60/62/1
f 44/59/1 45/251/1 53/71/1 52/60/1
f 145/252/1 131/16/1 128/15/1 144/250/1
f 144/250/1 1/253/1 4/254/1 145/252/1
f 140/9/1 2/10/1 1/253/1 144/250/1
f 45/251/1 149/255/1 151/256/1 47/64/1
f 42/58/1 146/257/1 148/258/1 44/59/1
f 44/59/1 148/258/1 149/255/1 45/251/1
f 47/64/1 151/256/1 150/259/1 46/65/1
f 43/57/1 147/260/1 146/257/1 42/58/1
