# Blender v2.90.0 OBJ File: 'laneira_prototipo.blend'
# www.blender.org
mtllib parede01.mtl
o pilares_1andar.010_Plane.003
v 8.040673 0.044320 9.873467
v 11.843038 0.044320 9.873467
v 10.039005 0.044320 9.873467
v 17.143997 -0.014857 9.873467
v 15.606752 -0.014857 9.873467
v 19.142330 -0.014857 9.873467
v 21.024124 -0.014857 9.873467
v 23.022455 -0.014857 9.873467
v 24.861656 -0.014857 9.873467
v 26.859983 -0.014857 9.873467
v 28.788979 -0.014857 9.873467
v 30.787312 -0.014857 9.873467
v 32.669838 -0.014857 9.873467
v 34.668167 -0.014857 9.873467
v 36.754665 -0.014857 9.873467
v 38.752998 -0.014857 9.873467
v 39.922649 -0.014857 9.873467
v 8.040673 0.996112 10.150423
v 8.040673 0.996112 9.873467
v 10.039005 0.996112 9.873467
v 11.843038 0.994432 9.873467
v 10.039005 0.996112 10.150423
v 19.142330 0.994432 10.150423
v 17.143997 0.994432 10.150423
v 17.143997 0.994432 9.873467
v 19.142330 0.994432 9.873467
v 23.022455 0.994432 10.150423
v 21.024124 0.994432 10.150423
v 21.024124 0.994432 9.873467
v 23.022455 0.994432 9.873467
v 26.859983 0.994432 10.150423
v 24.861656 0.994432 10.150423
v 24.861656 0.994432 9.873467
v 26.859983 0.994432 9.873467
v 30.787312 0.994432 10.150423
v 28.788979 0.994432 10.150423
v 28.788979 0.994432 9.873467
v 30.787312 0.994432 9.873467
v 34.668167 0.994432 10.150423
v 32.669838 0.994432 10.150423
v 32.669838 0.994432 9.873467
v 34.668167 0.994432 9.873467
v 38.752998 0.994432 10.150423
v 36.754665 0.994432 10.150423
v 36.754665 0.994432 9.873467
v 38.752998 0.994432 9.873467
v 39.922649 0.994432 9.873467
v 15.606752 0.994432 9.873467
v 8.040673 2.990612 10.150423
v 10.039005 2.990612 9.873467
v 8.040673 2.990612 9.873467
v 11.843038 2.990612 9.873467
v 10.039005 2.990612 10.150423
v 19.142330 2.990612 10.150423
v 17.143997 2.990612 9.873467
v 23.022455 2.990612 10.150423
v 21.024124 2.990612 9.873467
v 26.859983 2.990612 10.150423
v 24.861656 2.990612 9.873467
v 30.787312 2.990612 10.150423
v 28.788979 2.990612 9.873467
v 34.668167 2.990612 10.150423
v 32.669838 2.990612 9.873467
v 38.752998 2.990612 10.150423
v 36.754665 2.990612 9.873467
v 15.606752 2.990612 9.873467
v 17.143997 2.990612 10.150423
v 19.142330 2.990612 9.873467
v 21.024124 2.990612 10.150423
v 23.022455 2.990612 9.873467
v 24.861656 2.990612 10.150423
v 26.859983 2.990612 9.873467
v 28.788979 2.990612 10.150423
v 30.787312 2.990612 9.873467
v 32.669838 2.990612 10.150423
v 34.668167 2.990612 9.873467
v 36.754665 2.990612 10.150423
v 38.752998 2.990612 9.873467
v 39.922649 2.990612 9.873467
v 8.040673 -0.516486 9.873467
v 11.843038 -0.516486 9.873467
v 10.039005 -0.516486 9.873467
v 17.143997 -0.516602 9.873467
v 15.606752 -0.516602 9.873467
v 19.142330 -0.516602 9.873467
v 21.024124 -0.516602 9.873467
v 23.022455 -0.516602 9.873467
v 24.861656 -0.516602 9.873467
v 26.859983 -0.516602 9.873467
v 28.788979 -0.516602 9.873467
v 30.787312 -0.516602 9.873467
v 32.669838 -0.516602 9.873467
v 34.668167 -0.516602 9.873467
v 36.754665 -0.516602 9.873467
v 38.752998 -0.516602 9.873467
v 39.922649 -0.516602 9.873467
v 8.040673 4.888065 10.150423
v 8.040673 4.888065 9.873467
v 11.843038 4.888065 9.873467
v 10.039005 4.888065 10.150423
v 10.039005 4.888065 9.873467
v 17.143997 4.888065 10.150423
v 17.143997 4.888065 9.873467
v 15.606752 4.888065 9.873467
v 19.142330 4.888065 10.150423
v 19.142330 4.888065 9.873467
v 21.024124 4.888065 10.150423
v 21.024124 4.888065 9.873467
v 23.022455 4.888065 10.150423
v 23.022455 4.888065 9.873467
v 24.861656 4.888065 10.150423
v 24.861656 4.888065 9.873467
v 26.859983 4.888065 10.150423
v 26.859983 4.888065 9.873467
v 28.788979 4.888065 10.150423
v 28.788979 4.888065 9.873467
v 30.787312 4.888065 10.150423
v 30.787312 4.888065 9.873467
v 32.669838 4.888065 10.150423
v 32.669838 4.888065 9.873467
v 34.668167 4.888065 10.150423
v 34.668167 4.888065 9.873467
v 36.754665 4.888065 10.150423
v 36.754665 4.888065 9.873467
v 38.752998 4.888065 10.150423
v 38.752998 4.888065 9.873467
v 39.922649 4.888065 9.873467
v 8.040673 7.706817 9.873467
v 11.843038 7.706817 9.873467
v 10.039005 7.706817 9.873467
v 17.143997 7.706817 9.873467
v 15.606752 7.706817 9.873467
v 19.142330 7.706817 9.873467
v 21.024124 7.706817 9.873467
v 23.022455 7.706817 9.873467
v 24.861656 7.706817 9.873467
v 26.859983 7.706817 9.873467
v 28.788979 7.706817 9.873467
v 30.787312 7.706817 9.873467
v 32.669838 7.706817 9.873467
v 34.668167 7.706817 9.873467
v 36.754665 7.706817 9.873467
v 38.752998 7.706817 9.873467
v 39.922649 7.706817 9.873467
v 38.752998 6.890370 10.150423
v 39.922649 6.890370 9.873467
v 38.752998 6.890370 9.873467
v 34.668167 6.890370 10.150423
v 36.754665 6.890370 10.150423
v 36.754665 6.890370 9.873467
v 34.668167 6.890370 9.873467
v 30.787312 6.890370 10.150423
v 32.669838 6.890370 10.150423
v 8.040673 6.890370 9.873467
v 11.843038 6.890370 9.873467
v 15.606752 6.890370 9.873467
v 8.040673 6.890370 10.150423
v 10.039005 6.890370 9.873467
v 10.039005 6.890370 10.150423
v 17.143997 6.890370 9.873467
v 17.143997 6.890370 10.150423
v 19.142330 6.890370 10.150423
v 19.142330 6.890370 9.873467
v 23.022455 6.890370 10.150423
v 21.024124 6.890370 10.150423
v 21.024124 6.890370 9.873467
v 23.022455 6.890370 9.873467
v 26.859983 6.890370 10.150423
v 24.861656 6.890370 10.150423
v 24.861656 6.890370 9.873467
v 26.859983 6.890370 9.873467
v 28.788979 6.890370 10.150423
v 28.788979 6.890370 9.873467
v 30.787312 6.890370 9.873467
v 32.669838 6.890370 9.873467
v 12.727086 2.990612 9.873467
v 14.722695 2.990612 9.873467
v 14.722695 4.888065 10.150423
v 12.727094 4.888065 10.150423
v 14.722695 4.888065 9.873467
v 12.727094 4.888065 9.873467
v 14.722695 7.706817 9.873467
v 12.727094 7.706817 9.873467
v 14.722695 6.890370 10.150423
v 12.727094 6.890370 10.150423
v 12.727086 6.890370 9.873467
v 14.722695 6.890370 9.873467
v 5.570286 0.044320 9.873467
v 5.570286 0.996112 9.873467
v 5.570286 2.990612 9.873467
v 5.570286 -0.516486 9.873467
v 5.570286 4.888065 9.873467
v 5.570286 7.706817 9.873467
v 5.570286 6.890370 9.873467
v 11.843038 0.044320 10.141157
v 15.606752 -0.014857 10.141157
v 11.843038 0.994432 10.141157
v 15.606752 0.994432 10.141157
v 11.843038 2.990612 10.141157
v 15.606752 2.990612 10.141157
v 11.843038 -0.516486 10.141157
v 15.606752 -0.516602 10.141157
v 12.727086 2.990612 10.141157
v 14.722695 2.990612 10.141157
vt 3.831176 -0.976068
vt 3.831176 -1.245704
vt 3.113943 -1.245704
vt 3.113943 -0.976068
vt 7.361280 -0.944267
vt 7.361280 -1.245642
vt 6.428919 -1.245642
vt 6.428919 -0.944267
vt 5.587213 -1.245642
vt 5.587212 -0.944266
vt -6.968165 -0.976067
vt -6.968165 -1.245703
vt -7.513889 -1.245703
vt -7.513888 -0.976067
vt -5.062306 -0.976067
vt -5.062306 -1.245703
vt -6.035803 -1.245703
vt -6.035803 -0.976067
vt -3.251616 -0.976068
vt -3.251616 -1.245704
vt -4.129946 -1.245704
vt -4.129946 -0.976068
vt -1.419243 -0.976068
vt -1.419243 -1.245704
vt -2.319256 -1.245704
vt -2.319256 -0.976068
vt 6.428919 -0.432776
vt 7.361280 -0.432775
vt 5.587213 -0.433678
vt 3.113943 -0.433678
vt 3.831177 -0.433678
vt -7.513889 -0.433677
vt -6.968165 -0.433677
vt -6.035803 -0.433677
vt -5.062306 -0.433677
vt -4.129946 -0.433678
vt -3.251616 -0.433678
vt -2.319255 -0.433678
vt -1.419243 -0.433678
vt -0.486884 -0.976068
vt -0.486884 -0.433678
vt 0.371232 -0.433678
vt 0.371232 -0.976068
vt 1.303593 -0.976068
vt 1.303593 -0.433678
vt 2.181581 -0.433678
vt 2.181581 -0.976068
vt 5.587213 0.639064
vt 6.428919 0.639064
vt 3.113943 0.639064
vt 3.831177 0.639064
vt -7.513889 0.639064
vt -6.968165 0.639064
vt -6.035804 0.639064
vt -5.062306 0.639064
vt -4.129947 0.639064
vt -3.251616 0.639064
vt -2.319255 0.639064
vt -1.419244 0.639064
vt -0.486884 0.639064
vt 0.371232 0.639064
vt 1.303593 0.639064
vt 2.181581 0.639064
vt 8.536217 4.428493
vt 8.536217 5.488798
vt 8.786218 5.488798
vt 8.786218 4.428493
vt 8.786217 5.959668
vt 8.786217 5.758265
vt 7.786217 5.758265
vt 7.786217 5.959668
vt 8.786218 5.488798
vt 9.036217 5.488798
vt 9.036217 4.428493
vt 8.786218 4.428493
vt 7.786217 5.556863
vt 7.786217 5.758265
vt 8.786217 5.758265
vt 8.786217 5.556863
vt 5.874330 4.423317
vt 5.624330 4.423317
vt 5.624330 5.494814
vt 5.874330 5.494814
vt 5.003305 5.595938
vt 5.003305 5.802910
vt 6.003305 5.802909
vt 6.003305 5.595937
vt 5.874330 5.494813
vt 6.124329 5.494813
vt 6.124329 4.423317
vt 5.874330 4.423317
vt 6.003305 6.009883
vt 6.003305 5.802910
vt 5.003305 5.802911
vt 5.003305 6.009884
vt 4.608509 4.424000
vt 4.408843 4.424000
vt 4.408843 5.494567
vt 4.608509 5.494567
vt 3.581810 5.620485
vt 3.581810 5.805136
vt 4.545915 5.805136
vt 4.545915 5.620485
vt 4.608509 5.494565
vt 4.808172 5.494565
vt 4.808172 4.424000
vt 4.608509 4.424000
vt 4.545915 5.989787
vt 4.545915 5.805136
vt 3.581810 5.805136
vt 3.581810 5.989788
vt 3.235592 4.044411
vt 2.985592 4.044411
vt 2.985591 5.122422
vt 3.235592 5.122422
vt 2.450650 5.376730
vt 2.450650 5.557435
vt 3.397900 5.557435
vt 3.397900 5.376730
vt 3.235592 5.122421
vt 3.485591 5.122421
vt 3.485591 4.044411
vt 3.235592 4.044411
vt 3.397900 5.738140
vt 3.397900 5.557435
vt 2.450650 5.557435
vt 2.450650 5.738140
vt 1.554465 4.102093
vt 1.304464 4.102093
vt 1.304464 5.182964
vt 1.554465 5.182964
vt 1.111657 5.414742
vt 1.111657 5.595508
vt 2.073137 5.595508
vt 2.073137 5.414742
vt 1.554465 5.182964
vt 1.804464 5.182964
vt 1.804464 4.102093
vt 1.554465 4.102093
vt 2.073137 5.776274
vt 2.073137 5.595508
vt 1.111657 5.595508
vt 1.111657 5.776274
vt -0.063542 4.171637
vt -0.313543 4.171637
vt -0.313543 5.240512
vt -0.063542 5.240512
vt 0.553211 5.613799
vt 0.553211 5.428006
vt -0.396046 5.428006
vt -0.396046 5.613799
vt -0.063542 5.240511
vt 0.186457 5.240511
vt 0.186457 4.171637
vt -0.063542 4.171637
vt -0.396046 5.613799
vt -0.396046 5.799592
vt 0.553211 5.799592
vt 0.553211 5.613799
vt -1.937498 4.235402
vt -2.187499 4.235402
vt -2.187499 5.309847
vt -1.937498 5.309847
vt -2.236889 5.466992
vt -2.236889 5.640728
vt -1.288819 5.640727
vt -1.288819 5.466991
vt -1.937498 5.309847
vt -1.687500 5.309847
vt -1.687500 4.235402
vt -1.937498 4.235402
vt -1.288819 5.814463
vt -1.288819 5.640728
vt -2.236889 5.640728
vt -2.236889 5.814464
vt 2.181581 -1.245704
vt 1.303593 -1.245704
vt 0.371232 -1.245704
vt -0.486884 -1.245704
vt 5.174742 2.734784
vt 5.174739 3.173540
vt 5.587213 3.173541
vt 5.587213 2.734784
vt -7.513890 2.734786
vt -7.513890 3.173542
vt -6.968165 3.173542
vt -6.968165 2.734787
vt -6.035803 2.734786
vt -6.035804 3.173542
vt -5.062307 3.173542
vt -5.062307 2.734786
vt 6.428918 3.173541
vt 6.428918 2.734785
vt 7.361279 3.173541
vt 7.361280 2.734785
vt 3.113943 2.734785
vt 3.113943 3.173541
vt 3.831176 3.173540
vt 3.831176 2.734785
vt 2.181581 2.734785
vt 2.181582 3.173541
vt 0.371232 2.734785
vt 0.371232 3.173541
vt 1.303593 3.173541
vt 1.303593 2.734784
vt -1.419243 2.734786
vt -1.419244 3.173542
vt -0.486884 3.173542
vt -0.486884 2.734786
vt -3.251616 2.734785
vt -3.251616 3.173542
vt -2.319256 3.173541
vt -2.319256 2.734785
vt -4.129946 3.173542
vt -4.129947 2.734786
vt -4.129947 1.658751
vt -3.251616 1.658751
vt -2.319256 1.658751
vt -1.419243 1.658751
vt -0.486884 1.658751
vt 0.371232 1.658751
vt 1.303593 1.658751
vt 2.181581 1.658751
vt 3.113943 1.658751
vt 3.831177 1.658750
vt 5.587212 1.658750
vt 6.428918 1.658751
vt -6.035804 1.658751
vt -5.062307 1.658751
vt -7.513890 1.658751
vt -6.968165 1.658751
vt 5.174740 1.658750
vt -5.649166 -2.400056
vt -6.581528 -2.400056
vt -6.581528 -2.251221
vt -5.649166 -2.251221
vt -5.629997 -3.167888
vt -5.778832 -3.167888
vt -5.778831 -2.112842
vt -5.629997 -2.112842
vt -3.777027 -1.804713
vt -3.777027 -1.655877
vt -2.844665 -1.655877
vt -2.844665 -1.804713
vt -5.629997 -6.333030
vt -5.778832 -6.333029
vt -5.778832 -5.277983
vt -5.629997 -5.277984
vt -6.581528 -2.251221
vt -7.513890 -2.251220
vt -7.513890 -2.102385
vt -6.581528 -2.102385
vt -5.629998 -4.222935
vt -5.778833 -4.222935
vt -5.778831 -3.167888
vt -5.629996 -3.167888
vt -5.647312 -2.251220
vt -5.647312 -2.102385
vt -4.714950 -2.102385
vt -4.714950 -2.251220
vt -6.076503 -5.277983
vt -5.927668 -5.277983
vt -5.927669 -6.333029
vt -6.076504 -6.333029
vt -2.850226 -2.400056
vt -3.782588 -2.400055
vt -3.782588 -2.251220
vt -2.850227 -2.251220
vt -5.778833 -6.333030
vt -5.927668 -6.333029
vt -5.927667 -5.277983
vt -5.778832 -5.277983
vt -5.649166 -2.400056
vt -5.649166 -2.251221
vt -4.716805 -2.251220
vt -4.716805 -2.400056
vt -5.778832 -3.167887
vt -5.927667 -3.167887
vt -5.927669 -2.112841
vt -5.778833 -2.112841
vt -6.581532 -2.697726
vt -7.513890 -2.697727
vt -7.513890 -2.548891
vt -6.581532 -2.548891
vt -5.481163 -4.222936
vt -5.629997 -4.222936
vt -5.629996 -3.167889
vt -5.481161 -3.167889
vt -4.716809 -2.697726
vt -4.716809 -2.548891
vt -3.784450 -2.548891
vt -3.784450 -2.697726
vt -6.076504 -2.112843
vt -5.927669 -2.112843
vt -5.927669 -3.167888
vt -6.076504 -3.167888
vt -4.152388 5.486636
vt -3.181093 5.486636
vt -3.181093 5.325446
vt -4.152388 5.325446
vt -4.025001 4.009841
vt -4.275000 4.009841
vt -4.274998 5.090158
vt -4.024999 5.090158
vt -3.181093 5.325446
vt -3.181093 5.164256
vt -4.152388 5.164256
vt -4.152388 5.325446
vt -4.024999 5.090157
vt -3.774999 5.090157
vt -3.775001 4.009841
vt -4.024999 4.009841
vt -4.463326 5.285954
vt -5.380644 5.285954
vt -5.380644 5.432066
vt -4.463326 5.432066
vt -5.234486 4.005609
vt -5.484484 4.005609
vt -5.484482 5.090136
vt -5.234484 5.090136
vt -5.380644 5.139842
vt -5.380644 5.285954
vt -4.463326 5.285954
vt -4.463326 5.139842
vt -5.734484 5.090136
vt -5.484484 5.090136
vt -5.484486 4.005609
vt -5.734485 4.005609
vt -6.925720 5.283343
vt -5.992499 5.283343
vt -5.992499 5.134547
vt -6.925720 5.134548
vt -6.437469 4.922407
vt -6.187470 4.922407
vt -6.187472 3.852297
vt -6.437470 3.852297
vt -5.992499 5.134547
vt -5.992499 4.985751
vt -6.925720 4.985752
vt -6.925720 5.134547
vt -5.937470 3.852297
vt -6.187470 3.852297
vt -6.187469 4.922407
vt -5.937470 4.922407
vt 4.243650 2.734785
vt 4.243650 1.658750
vt 4.243650 3.173541
vt -6.076504 -5.277981
vt -6.076503 -4.222935
vt -5.927668 -4.222935
vt -5.927669 -5.277983
vt -3.788998 -2.995396
vt -3.788998 -3.144231
vt -4.720085 -3.144232
vt -4.720085 -2.995396
vt -5.629998 -5.277983
vt -5.778832 -5.277983
vt -5.778831 -4.222936
vt -5.629997 -4.222936
vt -5.651176 -3.144232
vt -5.651173 -2.995396
vt -4.720085 -2.995396
vt -4.720085 -3.144232
vt 8.513888 2.734785
vt 8.513888 1.658751
vt 7.361280 1.658751
vt 8.513888 -0.432776
vt 8.513888 -0.944267
vt 8.513888 -1.245642
vt 7.361280 0.639064
vt 8.513889 0.639064
vt 8.513888 3.173541
vt 4.243649 0.639064
vt 5.174740 0.639064
vt 6.824009 5.298613
vt 6.680519 5.298613
vt 6.680519 6.368621
vt 6.824009 6.368621
vt 6.989374 2.211155
vt 6.845883 2.211155
vt 6.845883 3.281159
vt 6.989374 3.281162
vt 6.382773 4.178456
vt 6.382773 4.321946
vt 7.452475 4.321946
vt 7.452475 4.178456
vt 6.680519 6.909630
vt 6.824009 6.909630
vt 6.989374 1.701871
vt 6.845883 1.701871
vt 6.680519 7.178577
vt 6.824009 7.178577
vt 6.989374 1.401265
vt 6.845883 1.401263
vt 5.908904 4.178456
vt 5.908901 4.321946
vt 7.926355 4.321946
vt 7.926355 4.178456
vn 0.0000 0.0000 1.0000
vn -1.0000 0.0000 0.0000
vn 0.0000 1.0000 0.0000
vn 1.0000 0.0000 0.0000
vn 0.0000 -1.0000 0.0000
usemtl Parede
s off
f 5/1/1 84/2/1 83/3/1 4/4/1
f 1/5/1 80/6/1 82/7/1 3/8/1
f 3/8/1 82/7/1 81/9/1 2/10/1
f 16/11/1 95/12/1 96/13/1 17/14/1
f 14/15/1 93/16/1 94/17/1 15/18/1
f 12/19/1 91/20/1 92/21/1 13/22/1
f 10/23/1 89/24/1 90/25/1 11/26/1
f 15/18/1 94/17/1 95/12/1 16/11/1
f 3/8/1 20/27/1 19/28/1 1/5/1
f 2/10/1 21/29/1 20/27/1 3/8/1
f 4/4/1 25/30/1 48/31/1 5/1/1
f 17/14/1 47/32/1 46/33/1 16/11/1
f 15/18/1 45/34/1 42/35/1 14/15/1
f 13/22/1 41/36/1 38/37/1 12/19/1
f 11/26/1 37/38/1 34/39/1 10/23/1
f 16/11/1 46/33/1 45/34/1 15/18/1
f 14/15/1 42/35/1 41/36/1 13/22/1
f 12/19/1 38/37/1 37/38/1 11/26/1
f 9/40/1 33/41/1 30/42/1 8/43/1
f 10/23/1 34/39/1 33/41/1 9/40/1
f 7/44/1 29/45/1 26/46/1 6/47/1
f 8/43/1 30/42/1 29/45/1 7/44/1
f 6/47/1 26/46/1 25/30/1 4/4/1
f 21/29/1 52/48/1 50/49/1 20/27/1
f 25/30/1 55/50/1 66/51/1 48/31/1
f 47/32/1 79/52/1 78/53/1 46/33/1
f 45/34/1 65/54/1 76/55/1 42/35/1
f 41/36/1 63/56/1 74/57/1 38/37/1
f 37/38/1 61/58/1 72/59/1 34/39/1
f 33/41/1 59/60/1 70/61/1 30/42/1
f 29/45/1 57/62/1 68/63/1 26/46/1
f 51/64/2 19/65/2 18/66/2 49/67/2
f 53/68/3 50/69/3 51/70/3 49/71/3
f 22/72/4 20/73/4 50/74/4 53/75/4
f 18/76/5 19/77/5 20/78/5 22/79/5
f 67/80/2 55/81/2 25/82/2 24/83/2
f 54/84/3 68/85/3 55/86/3 67/87/3
f 23/88/4 26/89/4 68/90/4 54/91/4
f 24/92/5 25/93/5 26/94/5 23/95/5
f 69/96/2 57/97/2 29/98/2 28/99/2
f 56/100/3 70/101/3 57/102/3 69/103/3
f 27/104/4 30/105/4 70/106/4 56/107/4
f 28/108/5 29/109/5 30/110/5 27/111/5
f 71/112/2 59/113/2 33/114/2 32/115/2
f 58/116/3 72/117/3 59/118/3 71/119/3
f 31/120/4 34/121/4 72/122/4 58/123/4
f 32/124/5 33/125/5 34/126/5 31/127/5
f 73/128/2 61/129/2 37/130/2 36/131/2
f 60/132/3 74/133/3 61/134/3 73/135/3
f 35/136/4 38/137/4 74/138/4 60/139/4
f 36/140/5 37/141/5 38/142/5 35/143/5
f 75/144/2 63/145/2 41/146/2 40/147/2
f 62/148/3 76/149/3 63/150/3 75/151/3
f 39/152/4 42/153/4 76/154/4 62/155/4
f 40/156/5 41/157/5 42/158/5 39/159/5
f 77/160/2 65/161/2 45/162/2 44/163/2
f 64/164/3 78/165/3 65/166/3 77/167/3
f 43/168/4 46/169/4 78/170/4 64/171/4
f 44/172/5 45/173/5 46/174/5 43/175/5
f 4/4/1 83/3/1 85/176/1 6/47/1
f 7/44/1 86/177/1 87/178/1 8/43/1
f 6/47/1 85/176/1 86/177/1 7/44/1
f 9/40/1 88/179/1 89/24/1 10/23/1
f 8/43/1 87/178/1 88/179/1 9/40/1
f 11/26/1 90/25/1 91/20/1 12/19/1
f 13/22/1 92/21/1 93/16/1 14/15/1
f 186/180/1 183/181/1 129/182/1 155/183/1
f 146/184/1 144/185/1 143/186/1 147/187/1
f 150/188/1 142/189/1 141/190/1 151/191/1
f 155/183/1 129/182/1 130/192/1 158/193/1
f 158/193/1 130/192/1 128/194/1 154/195/1
f 160/196/1 131/197/1 132/198/1 156/199/1
f 163/200/1 133/201/1 131/197/1 160/196/1
f 167/202/1 135/203/1 134/204/1 166/205/1
f 166/205/1 134/204/1 133/201/1 163/200/1
f 171/206/1 137/207/1 136/208/1 170/209/1
f 170/209/1 136/208/1 135/203/1 167/202/1
f 174/210/1 139/211/1 138/212/1 173/213/1
f 151/191/1 141/190/1 140/214/1 175/215/1
f 147/187/1 143/186/1 142/189/1 150/188/1
f 173/213/1 138/212/1 137/207/1 171/206/1
f 175/215/1 140/214/1 139/211/1 174/210/1
f 120/216/1 175/215/1 174/210/1 118/217/1
f 116/218/1 173/213/1 171/206/1 114/219/1
f 112/220/1 170/209/1 167/202/1 110/221/1
f 108/222/1 166/205/1 163/200/1 106/223/1
f 103/224/1 160/196/1 156/199/1 104/225/1
f 99/226/1 155/183/1 158/193/1 101/227/1
f 124/228/1 150/188/1 151/191/1 122/229/1
f 127/230/1 146/184/1 147/187/1 126/231/1
f 181/232/1 186/180/1 155/183/1 99/226/1
f 100/233/5 97/234/5 98/235/5 101/236/5
f 158/237/4 159/238/4 100/239/4 101/240/4
f 154/241/3 157/242/3 159/243/3 158/244/3
f 98/245/2 97/246/2 157/247/2 154/248/2
f 105/249/5 102/250/5 103/251/5 106/252/5
f 163/253/4 162/254/4 105/255/4 106/256/4
f 160/257/3 161/258/3 162/259/3 163/260/3
f 103/261/2 102/262/2 161/263/2 160/264/2
f 109/265/5 107/266/5 108/267/5 110/268/5
f 167/269/4 164/270/4 109/271/4 110/272/4
f 166/273/3 165/274/3 164/275/3 167/276/3
f 108/277/2 107/278/2 165/279/2 166/280/2
f 113/281/5 111/282/5 112/283/5 114/284/5
f 171/285/4 168/286/4 113/287/4 114/288/4
f 170/289/3 169/290/3 168/291/3 171/292/3
f 112/293/2 111/294/2 169/295/2 170/296/2
f 117/297/5 115/298/5 116/299/5 118/300/5
f 174/301/4 152/302/4 117/303/4 118/304/4
f 173/305/3 172/306/3 152/307/3 174/308/3
f 116/309/2 115/310/2 172/311/2 173/312/2
f 121/313/5 119/314/5 120/315/5 122/316/5
f 151/317/4 148/318/4 121/319/4 122/320/4
f 175/321/3 153/322/3 148/323/3 151/324/3
f 120/325/2 119/326/2 153/327/2 175/328/2
f 125/329/5 123/330/5 124/331/5 126/332/5
f 147/333/4 145/334/4 125/335/4 126/336/4
f 150/337/3 149/338/3 145/339/3 147/340/3
f 124/341/2 123/342/2 149/343/2 150/344/2
f 104/225/1 156/199/1 187/345/1 180/346/1
f 156/199/1 132/198/1 182/347/1 187/345/1
f 187/345/1 182/347/1 183/181/1 186/180/1
f 186/348/2 181/349/2 179/350/2 185/351/2
f 180/352/5 178/353/5 179/354/5 181/355/5
f 187/356/4 184/357/4 178/358/4 180/359/4
f 186/360/3 185/361/3 184/362/3 187/363/3
f 154/195/1 194/364/1 192/365/1 98/366/1
f 19/28/1 189/367/1 188/368/1 1/5/1
f 1/5/1 188/368/1 191/369/1 80/6/1
f 51/370/1 190/371/1 189/367/1 19/28/1
f 128/194/1 193/372/1 194/364/1 154/195/1
f 126/231/1 78/53/1 79/52/1 127/230/1
f 124/228/1 65/54/1 78/53/1 126/231/1
f 122/229/1 76/55/1 65/54/1 124/228/1
f 120/216/1 63/56/1 76/55/1 122/229/1
f 118/217/1 74/57/1 63/56/1 120/216/1
f 116/218/1 61/58/1 74/57/1 118/217/1
f 114/219/1 72/59/1 61/58/1 116/218/1
f 112/220/1 59/60/1 72/59/1 114/219/1
f 110/221/1 70/61/1 59/60/1 112/220/1
f 108/222/1 57/62/1 70/61/1 110/221/1
f 106/223/1 68/63/1 57/62/1 108/222/1
f 103/224/1 55/50/1 68/63/1 106/223/1
f 104/225/1 66/51/1 55/50/1 103/224/1
f 180/346/1 177/373/1 66/51/1 104/225/1
f 181/232/1 176/374/1 177/373/1 180/346/1
f 99/226/1 52/48/1 176/374/1 181/232/1
f 101/227/1 50/49/1 52/48/1 99/226/1
f 98/366/1 51/370/1 50/49/1 101/227/1
f 192/365/1 190/371/1 51/370/1 98/366/1
f 66/375/4 200/376/4 198/377/4 48/378/4
f 21/379/2 197/380/2 199/381/2 52/382/2
f 176/383/3 203/384/3 204/385/3 177/386/3
f 48/378/4 198/377/4 196/387/4 5/388/4
f 2/389/2 195/390/2 197/380/2 21/379/2
f 5/388/4 196/387/4 202/391/4 84/392/4
f 81/393/2 201/394/2 195/390/2 2/389/2
f 52/395/3 199/396/3 203/384/3 176/383/3
f 177/386/3 204/385/3 200/397/3 66/398/3
