# Blender v2.90.0 OBJ File: 'laneira_prototipo.blend'
# www.blender.org
mtllib tesouras01.mtl
o pilares_1andar.014_Plane.008
v 12.012705 8.711211 4.378236
v 12.012705 8.801340 4.378236
v 12.012705 8.711211 4.242716
v 12.012705 8.801340 4.242716
v 34.468075 8.711211 4.378236
v 34.468075 8.801340 4.378236
v 34.468075 8.711211 4.242716
v 34.468075 8.801340 4.242716
vt 1.537167 -0.524648
vt 1.191865 -0.524648
vt 1.191865 -0.537167
vt 1.537167 -0.537167
vt 0.846560 1.537167
vt 0.501262 1.537167
vt 0.501251 -0.537167
vt 0.846545 -0.537167
vt 1.537159 -0.512129
vt 1.191865 -0.512129
vt 1.191865 -0.524648
vt 1.537159 -0.524648
vt 1.191865 1.537167
vt 0.846568 1.537167
vt 0.846560 -0.537167
vt 1.191858 -0.537167
vt -0.537154 1.537167
vt -0.537167 -0.537167
vt -0.017971 -0.537167
vt -0.017958 1.537167
vt 0.501239 -0.537167
vt -0.017945 1.537167
vt -0.017958 -0.537167
vn -1.0000 0.0000 0.0000
vn 0.0000 0.0000 -1.0000
vn 1.0000 0.0000 0.0000
vn 0.0000 0.0000 1.0000
vn 0.0000 -1.0000 0.0000
vn 0.0000 1.0000 0.0000
usemtl Metal
s off
f 1/1/1 2/2/1 4/3/1 3/4/1
f 3/5/2 4/6/2 8/7/2 7/8/2
f 7/9/3 8/10/3 6/11/3 5/12/3
f 5/13/4 6/14/4 2/15/4 1/16/4
f 3/17/5 7/18/5 5/19/5 1/20/5
f 8/21/6 4/6/6 2/22/6 6/23/6
