# Blender v2.90.0 OBJ File: 'laneira_prototipo.blend'
# www.blender.org
mtllib vidro01.mtl
o pilares_1andar.012_Plane.005
v 9.590760 -0.460620 4.202706
v 9.567986 -0.460620 4.202706
v 9.590760 3.032321 4.202706
v 9.567986 3.032321 4.202706
v 9.590760 2.236737 4.202706
v 9.567986 2.236737 4.202706
v 9.590760 -0.460620 4.918443
v 9.567986 -0.460620 4.918443
v 9.590760 3.032321 4.918443
v 9.567986 3.032321 4.918443
v 9.590760 2.236737 4.918443
v 9.567986 2.236737 4.918443
v 9.567986 2.236737 7.371068
v 9.593106 2.236737 7.371068
v 9.567986 3.032321 7.371068
v 9.593106 3.032321 7.371068
v 9.567986 -0.460620 7.371068
v 9.593106 -0.460620 7.371068
v 9.567986 2.236737 6.641527
v 9.590760 2.236737 6.641527
v 9.567986 3.032321 6.641527
v 9.590760 3.032321 6.641527
v 9.567986 -0.460620 6.641527
v 9.590760 -0.460620 6.641527
v 9.593106 -0.460620 7.349470
v 9.593106 2.236737 7.349470
v 9.593106 3.032321 7.349470
v 9.567986 3.032321 7.349470
v 9.567986 2.236737 7.349470
v 9.567986 -0.460620 7.349470
v 15.858123 2.236737 7.371068
v 15.858123 3.032321 7.371068
v 15.858123 -0.460620 7.371068
v 15.858123 -0.460620 7.349470
v 15.858123 2.236737 7.349470
v 15.858123 3.032321 7.349470
v 9.590760 3.032321 7.371068
v 9.590760 2.236737 7.371068
v 9.590760 -0.460620 7.371068
v 9.590760 -0.460620 7.349470
v 9.590760 3.032321 7.349470
v 9.590760 2.236737 7.349470
v 9.590760 3.754992 4.202706
v 9.567986 3.754992 4.202706
v 9.590760 3.754992 4.918443
v 9.567986 3.754992 4.918443
v 9.567986 3.754992 7.371068
v 9.593106 3.754992 7.371068
v 9.567986 3.754992 6.641527
v 9.590760 3.754992 6.641527
v 9.593106 3.754992 7.349470
v 9.567986 3.754992 7.349470
v 15.858123 3.754992 7.371068
v 15.858123 3.754992 7.349470
v 9.590760 3.754992 7.371068
v 9.590760 3.754992 7.349470
vt 0.000000 1.000000
vt 0.000000 1.000000
vt 0.000000 0.000000
vt 0.000000 0.000000
vt 0.000000 1.000000
vt 0.000000 0.000000
vt 0.000000 1.000000
vt 0.000000 0.000000
vt 0.000000 0.000000
vt 0.000000 1.000000
vt 0.000000 1.000000
vt 0.000000 0.000000
vt 0.000000 1.000000
vt 0.000000 1.000000
vt 0.000000 1.000000
vt 0.000000 1.000000
vt 0.000000 1.000000
vt 0.000000 0.000000
vt 0.000000 0.000000
vt 0.000000 1.000000
vt 0.000000 0.000000
vt 0.000000 0.000000
vt 0.000000 0.000000
vt 0.000000 0.000000
vt 0.000000 0.000000
vt 0.000000 0.000000
vt 0.000000 0.000000
vt 0.000000 0.000000
vt 0.000000 0.000000
vt 0.000000 0.000000
vt 0.000000 0.000000
vt 0.000000 0.000000
vt 0.000000 1.000000
vt 0.000000 1.000000
vt 0.000000 1.000000
vt 0.000000 0.000000
vt 0.000000 0.000000
vt 0.000000 1.000000
vt 0.000000 1.000000
vt 0.000000 0.000000
vt 0.000000 0.000000
vt 0.000000 0.000000
vt 0.000000 0.000000
vt 0.000000 0.000000
vt 0.000000 0.000000
vt 0.000000 0.000000
vt 0.000000 0.000000
vt 0.000000 0.000000
vt 0.000000 0.000000
vt 0.000000 0.000000
vt 0.000000 0.000000
vt 0.000000 0.000000
vt 0.000000 0.000000
vt 0.000000 1.000000
vt 0.000000 1.000000
vt 0.000000 0.000000
vt 0.000000 0.000000
vt 0.000000 0.000000
vt 0.000000 1.000000
vt 0.000000 0.000000
vn 0.0000 0.0000 -1.0000
vn 0.0000 0.0000 1.0000
vn -1.0000 0.0000 0.0000
vn 1.0000 0.0000 0.0000
vn 0.0000 -1.0000 0.0000
vn 0.0000 1.0000 0.0000
usemtl Material
s off
f 6/1/1 4/2/1 3/3/1 5/4/1
f 2/5/1 6/1/1 5/4/1 1/6/1
f 12/7/2 11/8/2 9/9/2 10/10/2
f 8/11/2 7/12/2 11/8/2 12/7/2
f 6/1/3 2/5/3 8/11/3 12/7/3
f 4/2/3 6/1/3 12/7/3 10/10/3
f 21/13/3 28/14/3 52/15/3 49/16/3
f 5/4/4 3/3/4 9/9/4 11/8/4
f 1/6/4 5/4/4 11/8/4 7/12/4
f 2/5/5 1/6/5 7/12/5 8/11/5
f 30/17/5 40/18/5 39/19/5 17/20/5
f 18/21/5 25/22/5 34/23/5 33/24/5
f 46/25/3 10/26/3 21/27/3 49/28/3
f 41/29/4 22/30/4 50/31/4 56/32/4
f 28/14/3 29/33/3 13/34/3 15/35/3
f 29/33/3 30/17/3 17/20/3 13/34/3
f 17/20/2 39/19/2 38/36/2 13/34/2
f 13/34/2 38/36/2 37/37/2 15/35/2
f 23/38/1 19/39/1 20/40/1 24/41/1
f 19/39/1 21/13/1 22/30/1 20/40/1
f 19/39/3 23/38/3 30/17/3 29/33/3
f 21/13/3 19/39/3 29/33/3 28/14/3
f 36/42/1 27/43/1 51/44/1 54/45/1
f 20/40/4 22/30/4 41/29/4 42/46/4
f 24/41/4 20/40/4 42/46/4 40/18/4
f 23/38/5 24/41/5 40/18/5 30/17/5
f 34/23/4 35/47/4 31/48/4 33/24/4
f 35/47/4 36/42/4 32/49/4 31/48/4
f 26/50/1 27/43/1 36/42/1 35/47/1
f 14/51/2 18/21/2 33/24/2 31/48/2
f 25/22/1 26/50/1 35/47/1 34/23/1
f 16/52/2 14/51/2 31/48/2 32/49/2
f 27/43/3 26/50/3 25/22/3 18/21/3 14/51/3 16/52/3
f 42/46/4 41/29/4 37/37/4 38/36/4
f 40/18/4 42/46/4 38/36/4 39/19/4
f 43/53/6 44/54/6 46/55/6 45/56/6
f 51/44/6 48/57/6 53/58/6 54/45/6
f 56/32/6 52/15/6 47/59/6 55/60/6
f 50/31/6 49/16/6 52/15/6 56/32/6
f 3/3/1 4/2/1 44/54/1 43/53/1
f 10/10/5 9/9/5 22/30/5 21/13/5
f 4/2/3 10/10/3 46/55/3 44/54/3
f 15/35/2 37/37/2 55/60/2 47/59/2
f 9/9/4 3/3/4 43/53/4 45/56/4
f 16/52/2 32/49/2 53/58/2 48/57/2
f 32/49/4 36/42/4 54/45/4 53/58/4
f 27/43/3 16/52/3 48/57/3 51/44/3
f 37/37/4 41/29/4 56/32/4 55/60/4
f 28/14/3 15/35/3 47/59/3 52/15/3
f 45/56/6 46/25/6 49/28/6 50/31/6
f 9/9/4 45/56/4 50/31/4 22/30/4
