# Blender v2.90.0 OBJ File: ''
# www.blender.org
mtllib pilares.mtl
o pilares_Plane.023
v 10.126688 -0.520808 3.937810
v 9.572833 -0.520808 3.937810
v 10.126688 -0.520808 4.202366
v 9.572833 -0.520808 4.202366
v 15.870790 -0.520808 4.177782
v 16.100319 -0.520808 4.177782
v 15.870790 -0.520808 3.948249
v 16.100319 -0.520808 3.948249
v 19.969772 -0.520808 4.177782
v 20.199303 -0.520808 4.177782
v 19.969772 -0.520808 3.948249
v 20.199303 -0.520808 3.948249
v 24.003206 -0.520808 4.177782
v 24.232731 -0.520808 4.177782
v 24.003206 -0.520808 3.948249
v 24.232731 -0.520808 3.948249
v 27.643133 -0.520808 4.177782
v 27.872665 -0.520808 4.177782
v 27.643133 -0.520808 3.948249
v 27.872665 -0.520808 3.948249
v 31.678555 -0.520808 4.177782
v 31.908087 -0.520808 4.177782
v 31.678555 -0.520808 3.948249
v 31.908087 -0.520808 3.948249
v 33.397892 -0.520808 4.349475
v 33.850544 -0.520808 4.349475
v 33.397892 -0.520808 3.898805
v 33.850544 -0.520808 3.898805
v 6.395644 3.735773 3.961069
v 10.126688 3.735773 3.937810
v 9.572833 3.735773 3.937810
v 10.126688 3.735773 4.201080
v 9.572833 3.735773 4.201080
v 15.870790 3.735773 4.177782
v 16.100319 3.735773 4.177782
v 15.870790 3.735773 3.948249
v 16.100319 3.735773 3.948249
v 19.969772 3.735773 4.177782
v 20.199303 3.735773 4.177782
v 19.969772 3.735773 3.948249
v 20.199303 3.735773 3.948249
v 24.003206 3.735773 4.177782
v 24.232731 3.735773 4.177782
v 24.003206 3.735773 3.948249
v 24.232731 3.735773 3.948249
v 27.643133 3.735773 4.177782
v 27.872665 3.735773 4.177782
v 27.643133 3.735773 3.948249
v 27.872665 3.735773 3.948249
v 31.678555 3.735773 4.177782
v 31.908087 3.735773 4.177782
v 31.678555 3.735773 3.948249
v 31.908087 3.735773 3.948249
v 33.397892 3.735773 4.349475
v 33.850544 3.735773 4.349475
v 33.397892 3.735773 3.898805
v 33.850544 3.735773 3.898805
v 6.395644 3.235758 3.961069
v 10.126688 3.235758 3.937810
v 10.126688 3.235758 4.202366
v 9.572833 3.235758 3.937810
v 9.572833 3.235758 4.201472
v 6.395644 3.735773 4.201080
v 6.395644 3.235758 4.201080
v 15.870790 3.239075 4.177782
v 15.870790 3.239075 3.948249
v 16.100319 3.239075 4.177782
v 16.100319 3.239075 3.948249
v 19.969772 3.239075 4.177782
v 19.969772 3.239075 3.948249
v 20.199303 3.239075 4.177782
v 20.199303 3.239075 3.948249
v 24.003206 3.239075 4.177782
v 24.003206 3.239075 3.948249
v 24.232731 3.239075 4.177782
v 24.232731 3.239075 3.948249
v 27.643133 3.239075 4.177782
v 27.643133 3.239075 3.948249
v 27.872665 3.239075 4.177782
v 27.872665 3.239075 3.948249
v 31.678555 3.239075 4.177782
v 31.678555 3.239075 3.948249
v 31.908087 3.239075 4.177782
v 31.908087 3.239075 3.948249
v 33.397892 3.239075 4.349475
v 33.397892 3.239075 3.898805
v 33.850544 3.239075 4.349475
v 33.850544 3.239075 3.898805
v 33.850590 3.735773 4.177782
v 33.850590 3.735773 3.948249
v 33.850590 3.239075 4.177782
v 33.850590 3.239075 3.948249
v 33.397892 3.239075 3.948249
v 33.397892 3.239075 4.177782
v 33.397892 3.735773 3.948249
v 33.397892 3.735773 4.177782
v 33.397892 -0.520808 4.177754
v 33.850544 -0.520808 4.177754
v 33.397892 -0.520808 3.948127
v 33.850544 -0.520808 3.948127
v 33.587627 -0.520808 4.349475
v 33.587627 -0.520808 3.898805
v 33.587627 3.735773 4.349475
v 33.587627 3.735773 3.898805
v 33.587627 3.239075 3.898805
v 33.587627 3.239075 4.349475
v 33.587646 3.735773 3.948249
v 33.587646 3.735773 4.177782
v 33.587627 -0.520808 4.177754
v 33.587627 -0.520808 3.948127
v 33.397892 3.735773 10.069452
v 33.397892 3.239075 10.069452
v 33.587627 3.735773 10.069452
v 33.587627 3.239075 10.069452
v 33.397892 3.735773 -1.337592
v 33.397892 3.239075 -1.337592
v 33.587627 3.735773 -1.337592
v 33.587627 3.239075 -1.337592
vt 0.000000 0.000000
vt 0.000000 1.000000
vt 1.000000 1.000000
vt 1.000000 0.000000
vt 0.000000 0.000000
vt 0.000000 1.000000
vt 1.000000 1.000000
vt 1.000000 0.000000
vt 0.000000 0.000000
vt 0.000000 1.000000
vt 1.000000 1.000000
vt 1.000000 0.000000
vt 0.000000 0.000000
vt 0.000000 1.000000
vt 1.000000 1.000000
vt 1.000000 0.000000
vt 0.000000 0.000000
vt 0.000000 1.000000
vt 1.000000 1.000000
vt 1.000000 0.000000
vt 0.000000 0.000000
vt 0.000000 1.000000
vt 1.000000 1.000000
vt 1.000000 0.000000
vt 0.394733 0.893728
vt 0.394733 1.000000
vt 1.000000 1.000000
vt 1.000000 0.893729
vt 0.000000 0.000000
vt 1.000000 0.000000
vt 1.000000 1.000000
vt 0.000000 1.000000
vt 0.000000 0.000000
vt 1.000000 0.000000
vt 1.000000 1.000000
vt 0.000000 1.000000
vt 0.000000 0.000000
vt 1.000000 0.000000
vt 1.000000 1.000000
vt 0.000000 1.000000
vt 0.000000 0.000000
vt 1.000000 0.000000
vt 1.000000 1.000000
vt 0.000000 1.000000
vt 0.000000 0.000000
vt 1.000000 0.000000
vt 1.000000 1.000000
vt 0.000000 1.000000
vt 0.000000 0.000000
vt 1.000000 0.000000
vt 1.000000 1.000000
vt 0.000000 1.000000
vt 1.000000 1.000000
vt 0.394733 1.000000
vt 0.000000 1.000000
vt 1.000000 1.000000
vt 0.000000 0.000000
vt 1.000000 0.000000
vt 1.000000 1.000000
vt 0.000000 1.000000
vt 0.000000 0.000000
vt 1.000000 0.000000
vt 1.000000 1.000000
vt 0.000000 1.000000
vt 0.000000 0.000000
vt 1.000000 0.000000
vt 1.000000 1.000000
vt 0.000000 1.000000
vt 0.000000 0.000000
vt 1.000000 0.000000
vt 1.000000 1.000000
vt 0.000000 1.000000
vt 0.000000 0.000000
vt 1.000000 0.000000
vt 1.000000 1.000000
vt 0.000000 1.000000
vt 0.000000 0.000000
vt 1.000000 0.000000
vt 1.000000 1.000000
vt 0.000000 1.000000
vt 0.394733 0.000000
vt 1.000000 0.000000
vt 1.000000 0.000000
vt 0.394733 0.000000
vt 0.000000 0.000000
vt 0.000000 0.000000
vt 0.000000 0.000000
vt 0.000000 0.000000
vt 0.000000 0.000000
vt 0.000000 0.000000
vt 1.000000 1.000000
vt 1.000000 1.000000
vt 0.000000 1.000000
vt 0.000000 1.000000
vt 0.394733 1.000000
vt 1.000000 1.000000
vt 1.000000 0.893729
vt 0.394733 0.000000
vt 1.000000 0.000000
vt 0.000000 0.382143
vt 0.000000 0.000000
vt 0.000000 0.000000
vt 0.000000 0.382143
vt 0.000000 0.000000
vt 0.000000 0.000000
vt 0.000000 0.000000
vt 0.000000 0.000000
vt 0.000000 0.000000
vt 0.000000 0.000000
vt 0.000000 0.000000
vt 0.000000 0.000000
vt 0.000000 0.000000
vt 0.000000 0.000000
vt 0.000000 0.000000
vt 0.000000 0.000000
vt 0.000000 0.000000
vt 0.000000 0.000000
vt 0.000000 0.000000
vt 0.000000 0.000000
vt 0.000000 0.000000
vt 0.000000 0.000000
vt 0.000000 0.000000
vt 0.000000 0.000000
vt 0.000000 0.000000
vt 0.000000 0.000000
vt 0.000000 0.000000
vt 0.000000 0.000000
vt 0.000000 0.000000
vt 0.000000 0.000000
vt 0.000000 0.000000
vt 0.000000 0.000000
vt 1.000000 1.000000
vt 1.000000 1.000000
vt 0.000000 0.000000
vt 0.000000 0.000000
vt 0.000000 0.000000
vt 0.000000 0.000000
vt 0.000000 0.000000
vt 0.000000 0.000000
vt 0.000000 0.000000
vt 0.000000 0.000000
vt 1.000000 0.000000
vt 1.000000 0.000000
vt 1.000000 1.000000
vt 0.000000 0.893728
vt 0.000000 0.893728
vt 1.000000 0.382143
vt 1.000000 0.382143
vt 0.394733 0.382143
vt 1.000000 0.000000
vt 0.000000 0.000000
vt 0.000000 0.000000
vt 0.000000 0.000000
vt 0.000000 0.000000
vt 0.000000 0.000000
vt 1.000000 0.000000
vt 0.000000 0.000000
vt 0.000000 0.000000
vt 0.394733 0.000000
vt 0.394733 0.000000
vt 0.394733 1.000000
vt 0.000000 1.000000
vt 0.000000 1.000000
vt 0.394733 1.000000
vn 0.0000 -1.0000 0.0000
vn 0.0000 1.0000 0.0000
vn 0.0000 0.0000 -1.0000
vn -0.0008 0.0017 1.0000
vn 0.0000 0.0000 1.0000
vn 0.0042 0.0013 1.0000
vn -1.0000 0.0000 0.0000
vn -0.0008 0.0001 1.0000
vn 1.0000 0.0000 0.0000
vn -0.0001 0.0004 1.0000
vn -0.0073 0.0000 -1.0000
vn 1.0000 -0.0000 -0.0005
vn 0.0006 -1.0000 0.0000
vn 0.0018 0.0000 -1.0000
vn 1.0000 0.0000 -0.0009
vn 1.0000 -0.0000 0.0001
vn 1.0000 0.0000 0.0003
usemtl Material.003
s off
f 1/1/1 3/2/1 4/3/1 2/4/1
f 5/5/1 7/6/1 8/7/1 6/8/1
f 9/9/1 11/10/1 12/11/1 10/12/1
f 13/13/1 15/14/1 16/15/1 14/16/1
f 17/17/1 19/18/1 20/19/1 18/20/1
f 21/21/1 23/22/1 24/23/1 22/24/1
f 110/25/1 102/26/1 28/27/1 100/28/1
f 30/29/2 31/30/2 33/31/2 32/32/2
f 34/33/2 35/34/2 37/35/2 36/36/2
f 38/37/2 39/38/2 41/39/2 40/40/2
f 42/41/2 43/42/2 45/43/2 44/44/2
f 46/45/2 47/46/2 49/47/2 48/48/2
f 50/49/2 51/50/2 53/51/2 52/52/2
f 107/53/2 104/54/2 56/55/2 95/56/2
f 59/57/3 61/58/3 31/30/3 30/29/3
f 62/59/4 60/60/4 32/32/4 33/31/4
f 65/61/5 67/62/5 35/34/5 34/33/5
f 68/63/3 66/64/3 36/36/3 37/35/3
f 69/65/5 71/66/5 39/38/5 38/37/5
f 72/67/3 70/68/3 40/40/3 41/39/3
f 73/69/5 75/70/5 43/42/5 42/41/5
f 76/71/3 74/72/3 44/44/3 45/43/3
f 77/73/5 79/74/5 47/46/5 46/45/5
f 80/75/3 78/76/3 48/48/3 49/47/3
f 81/77/5 83/78/5 51/50/5 50/49/5
f 84/79/3 82/80/3 52/52/3 53/51/3
f 106/81/5 87/82/5 55/83/5 103/84/5
f 65/61/6 34/33/6 32/32/6 60/60/6
f 86/85/7 56/86/7 115/87/7 116/88/7
f 4/3/8 3/2/8 60/60/8 62/59/8
f 2/4/7 4/3/7 62/59/7 61/58/7
f 1/1/3 2/4/3 61/58/3 59/57/3
f 3/2/9 1/1/9 59/57/9 60/60/9
f 62/59/10 33/31/10 63/89/10 64/90/10
f 29/91/11 31/30/11 61/58/11 58/92/11
f 62/59/1 64/90/1 58/92/1 61/58/1
f 33/31/2 31/30/2 29/91/2 63/89/2
f 58/92/7 64/90/7 63/89/7 29/91/7
f 8/7/3 7/6/3 66/64/3 68/63/3
f 6/8/9 8/7/9 68/63/9 67/62/9
f 5/5/5 6/8/5 67/62/5 65/61/5
f 7/6/7 5/5/7 65/61/7 66/64/7
f 12/11/3 11/10/3 70/68/3 72/67/3
f 10/12/9 12/11/9 72/67/9 71/66/9
f 9/9/5 10/12/5 71/66/5 69/65/5
f 11/10/7 9/9/7 69/65/7 70/68/7
f 16/15/3 15/14/3 74/72/3 76/71/3
f 14/16/9 16/15/9 76/71/9 75/70/9
f 13/13/5 14/16/5 75/70/5 73/69/5
f 15/14/7 13/13/7 73/69/7 74/72/7
f 20/19/3 19/18/3 78/76/3 80/75/3
f 18/20/9 20/19/9 80/75/9 79/74/9
f 17/17/5 18/20/5 79/74/5 77/73/5
f 19/18/7 17/17/7 77/73/7 78/76/7
f 24/23/3 23/22/3 82/80/3 84/79/3
f 22/24/9 24/23/9 84/79/9 83/78/9
f 21/21/5 22/24/5 83/78/5 81/77/5
f 23/22/7 21/21/7 81/77/7 82/80/7
f 102/26/3 27/93/3 86/94/3 105/95/3
f 100/28/12 28/27/12 88/96/12 92/97/12
f 101/98/5 26/99/5 87/82/5 106/81/5
f 97/100/7 25/101/7 85/102/7 94/103/7
f 35/34/5 67/62/5 69/65/5 38/37/5
f 39/38/5 71/66/5 73/69/5 42/41/5
f 43/42/5 75/70/5 77/73/5 46/45/5
f 47/46/5 79/74/5 81/77/5 50/49/5
f 66/104/13 65/61/13 60/105/13 59/57/13
f 36/106/14 66/104/14 59/57/14 30/29/14
f 34/33/2 36/106/2 30/29/2 32/107/2
f 70/108/1 69/65/1 67/109/1 68/110/1
f 40/111/3 70/108/3 68/110/3 37/112/3
f 38/37/2 40/111/2 37/112/2 35/113/2
f 74/114/1 73/69/1 71/115/1 72/116/1
f 44/117/3 74/114/3 72/116/3 41/118/3
f 42/41/2 44/117/2 41/118/2 39/119/2
f 78/120/1 77/73/1 75/121/1 76/122/1
f 48/123/3 78/120/3 76/122/3 45/124/3
f 46/45/2 48/123/2 45/124/2 43/125/2
f 82/126/1 81/77/1 79/127/1 80/128/1
f 52/129/3 82/126/3 80/128/3 49/130/3
f 50/49/2 52/129/2 49/130/2 47/131/2
f 90/132/15 92/97/15 88/96/15 57/133/15
f 108/134/2 107/135/2 95/136/2 96/137/2
f 91/138/9 92/139/9 90/140/9 89/141/9
f 51/50/5 83/78/5 94/142/5 96/143/5
f 53/51/2 51/50/2 96/143/2 95/56/2
f 84/79/3 53/51/3 95/56/3 93/144/3
f 83/78/1 84/79/1 93/144/1 94/142/1
f 99/145/7 97/100/7 94/103/7 93/146/7
f 26/99/16 98/147/16 91/148/16 87/82/16
f 101/98/1 109/149/1 98/147/1 26/99/1
f 27/93/7 99/145/7 93/146/7 86/94/7
f 98/147/9 100/28/9 92/97/9 91/148/9
f 109/149/1 110/25/1 100/28/1 98/147/1
f 108/150/2 96/143/2 54/151/2 103/84/2
f 87/152/17 91/138/17 89/141/17 55/153/17
f 94/154/7 85/102/7 54/151/7 96/137/7
f 95/136/7 56/86/7 86/85/7 93/155/7
f 89/156/2 108/150/2 103/84/2 55/83/2
f 97/100/1 99/145/1 110/25/1 109/149/1
f 25/101/1 97/100/1 109/149/1 101/98/1
f 89/141/2 90/140/2 107/135/2 108/134/2
f 25/101/5 101/98/5 106/81/5 85/102/5
f 28/27/3 102/26/3 105/95/3 88/96/3
f 88/96/3 105/95/3 104/54/3 57/133/3
f 54/151/7 85/102/7 112/157/7 111/158/7
f 90/132/2 57/133/2 104/54/2 107/53/2
f 99/145/1 27/93/1 102/26/1 110/25/1
f 112/157/5 114/159/5 113/160/5 111/158/5
f 103/84/2 54/151/2 111/158/2 113/160/2
f 106/81/9 103/84/9 113/160/9 114/159/9
f 85/102/1 106/81/1 114/159/1 112/157/1
f 118/161/3 116/162/3 115/163/3 117/164/3
f 104/54/9 105/95/9 118/161/9 117/164/9
f 56/55/2 104/54/2 117/164/2 115/163/2
f 105/95/1 86/94/1 116/162/1 118/161/1
