# Blender v2.90.0 OBJ File: 'laneira_prototipo.blend'
# www.blender.org
mtllib parede_03.mtl
o pilares_1andar.002_Plane.018
v 39.922649 -0.014857 -1.170830
v 39.922649 0.994432 -1.170830
v 39.922649 2.990612 -1.170830
v 39.922649 -0.516602 -1.170830
v 39.922649 4.888065 -1.170830
v 39.922649 7.586452 -1.170830
v 39.922649 6.890370 -1.170830
v 33.540142 -0.014857 -1.494476
v 33.540142 -0.014857 -1.170830
v 31.347464 0.037288 -1.494476
v 31.347464 0.037288 -1.170830
v 33.540142 0.994432 -1.170830
v 33.540142 0.994432 -1.494476
v 33.540142 2.699603 -1.170830
v 33.540142 2.699603 -1.494476
v 33.540142 -0.516602 -1.494476
v 33.540142 -0.516602 -1.170830
v 31.347464 -0.516602 -1.494476
v 31.347464 -0.516602 -1.170830
v 16.122622 0.037288 -1.170830
v 31.347464 2.695593 -1.170830
v 31.347464 2.695593 -1.494476
v 16.122622 -0.516602 -1.170830
v 16.122622 3.198784 -1.170830
v 33.694138 4.888065 -1.494476
v 33.694138 4.888065 -1.170830
v 31.693855 4.888065 -1.494476
v 31.693855 4.888065 -1.170830
v 16.122622 4.888065 -1.170830
v 16.122622 4.888065 -1.494476
v 33.540142 7.586452 -1.170830
v 31.347464 7.586452 -1.170830
v 16.122622 7.586452 -1.170830
v 33.694138 6.890370 -1.494476
v 31.693855 6.890370 -1.494476
v 33.694138 6.890370 -1.170830
v 16.122622 6.890370 -1.170830
v 31.693855 6.890370 -1.170830
v 16.122622 6.890370 -1.494476
v 7.044077 4.888065 -1.494476
v 7.044077 6.890370 -1.494476
v 7.044077 0.037288 -1.170830
v 7.044077 -0.516602 -1.170830
v 7.044077 3.225689 -1.170830
v 7.044077 4.888065 -1.170830
v 7.044077 7.586452 -1.170830
v 7.044077 6.890370 -1.170830
v 9.039093 4.888065 -1.494476
v 9.039093 6.890370 -1.494476
v 9.039093 0.037288 -1.170830
v 9.039093 -0.516602 -1.170830
v 9.039093 3.220264 -1.170830
v 9.039093 4.888065 -1.170830
v 9.039093 7.586452 -1.170830
v 9.039093 6.890370 -1.170830
v 11.732218 4.888065 -1.494476
v 11.732218 6.890370 -1.494476
v 11.732218 0.037288 -1.170830
v 11.732218 -0.516602 -1.170830
v 11.732218 3.212941 -1.170830
v 11.732218 4.888065 -1.170830
v 11.732218 7.586452 -1.170830
v 11.732218 6.890370 -1.170830
v 13.732689 4.888065 -1.494476
v 13.732689 6.890370 -1.494476
v 13.732689 0.037288 -1.170830
v 13.732689 -0.516602 -1.170830
v 13.732689 3.207412 -1.170830
v 13.732689 4.888065 -1.170830
v 13.732689 7.586452 -1.170830
v 13.732689 6.890370 -1.170830
v 18.123840 -0.516602 -1.170830
v 18.123840 0.037288 -1.170830
v 18.123840 3.131631 -1.170830
v 18.123840 4.888065 -1.494476
v 18.123840 4.888065 -1.170830
v 18.123840 7.586452 -1.170830
v 18.123840 6.890370 -1.170830
v 18.123840 6.890370 -1.494476
v 20.042957 4.888065 -1.494476
v 20.042957 6.890370 -1.494476
v 20.042957 -0.516602 -1.170830
v 20.042957 0.037288 -1.170830
v 20.042957 3.068350 -1.170830
v 20.042957 4.888065 -1.170830
v 20.042957 7.586452 -1.170830
v 20.042957 6.890370 -1.170830
v 22.042870 4.888065 -1.494476
v 22.042870 6.890370 -1.494476
v 22.042870 -0.516602 -1.170830
v 22.042870 0.037288 -1.170830
v 22.042870 3.001429 -1.170830
v 22.042870 4.888065 -1.170830
v 22.042870 7.586452 -1.170830
v 22.042870 6.890370 -1.170830
v 23.889214 4.888065 -1.494476
v 23.889214 6.890370 -1.494476
v 23.889214 -0.516602 -1.170830
v 23.889214 0.037288 -1.170830
v 23.889214 2.940937 -1.170830
v 23.889214 4.888065 -1.170830
v 23.889214 7.586452 -1.170830
v 23.889214 6.890370 -1.170830
v 25.885662 4.888065 -1.494476
v 25.885662 6.890370 -1.494476
v 25.885662 -0.516602 -1.170830
v 25.885662 0.037288 -1.170830
v 25.885662 2.874922 -1.170830
v 25.885662 4.888065 -1.170830
v 25.885662 7.586452 -1.170830
v 25.885662 6.890370 -1.170830
v 27.815706 4.888065 -1.494476
v 27.815706 6.890370 -1.494476
v 27.815706 -0.516602 -1.170830
v 27.815706 0.037288 -1.170830
v 27.815706 2.811691 -1.170830
v 27.815706 4.888065 -1.170830
v 27.815706 7.586452 -1.170830
v 27.815706 6.890370 -1.170830
v 29.819950 4.888065 -1.494476
v 29.819950 6.890370 -1.494476
v 29.819950 -0.516602 -1.170830
v 29.819950 0.037288 -1.170830
v 29.819950 2.745608 -1.170830
v 29.819950 4.888065 -1.170830
v 29.819950 7.586452 -1.170830
v 29.819950 6.890370 -1.170830
v 35.731857 -0.014857 -1.170830
v 35.731857 0.994432 -1.170830
v 35.731857 2.845107 -1.170830
v 35.731857 -0.516601 -1.170830
v 35.731857 4.888065 -1.494476
v 35.731857 4.888065 -1.170830
v 35.731857 7.586452 -1.170830
v 35.731857 6.890370 -1.494476
v 35.731857 6.890370 -1.170830
v 37.731701 4.888065 -1.170830
v 37.731701 7.586452 -1.170830
v 37.731701 6.890370 -1.494476
v 37.731701 0.994432 -1.170830
v 37.731701 2.917860 -1.170830
v 37.731701 4.888065 -1.494476
v 37.731701 6.890370 -1.170830
v 37.731705 -0.014857 -1.170830
v 37.731705 -0.516601 -1.170830
v 5.570286 0.037288 -1.170830
v 5.570286 -0.516602 -1.170830
v 5.570286 3.225689 -1.170830
v 5.570286 4.888065 -1.170830
v 5.570286 7.586452 -1.170830
v 5.570286 6.890370 -1.170830
vt 8.838387 0.714948
vt 10.094364 0.753609
vt 10.094364 1.761924
vt 8.838387 1.761924
vt 0.550841 4.597602
vt 0.774021 4.597602
vt 0.774021 5.129981
vt 0.550839 5.129981
vt 8.838385 -0.307169
vt 10.094362 -0.307169
vt 0.774021 6.029418
vt 0.550839 6.029418
vt 0.550841 4.332942
vt 0.774022 4.332942
vt 7.691963 -0.843510
vt 6.435546 -0.843510
vt 6.435546 -1.110138
vt 7.691963 -1.110138
vt 0.539501 9.098061
vt 0.764616 9.098061
vt 0.764617 9.393693
vt 0.539501 9.393693
vt 0.539501 9.099426
vt 0.539501 7.680579
vt 0.764614 7.680579
vt 0.764616 9.099426
vt -0.066372 6.727161
vt 1.370485 6.727163
vt 1.370484 6.915411
vt -0.066372 6.915414
vt -2.401953 -0.815798
vt -2.401953 0.828549
vt -3.549166 0.864235
vt -3.549166 -0.815797
vt -3.549166 -1.110137
vt -2.401953 -1.110137
vt -4.919209 2.825959
vt -3.549165 2.825959
vt -3.549165 3.195860
vt -4.919209 3.195861
vt 8.838387 2.825957
vt 10.094364 2.825957
vt 10.094364 3.195858
vt 8.838387 3.195858
vt 5.377151 2.825958
vt 6.523827 2.825958
vt 6.435546 3.195858
vt 5.178581 3.195858
vt 4.302923 2.825958
vt 4.302923 3.195858
vt 4.302921 1.761924
vt 5.377151 1.761924
vt -4.919209 1.761926
vt -3.549165 1.761926
vt -7.609847 -0.815797
vt -8.753502 -0.815797
vt -8.753502 -1.110136
vt -7.609847 -1.110136
vt -7.609846 0.875650
vt -8.753502 0.878533
vt -6.065995 -0.815797
vt -6.065995 0.871759
vt -6.065995 -1.110136
vt -8.753502 2.825961
vt -7.609846 2.825960
vt -7.609845 3.195861
vt -8.753502 3.195862
vt -4.919211 -0.815797
vt -4.919211 -1.110137
vt -4.919209 0.868820
vt -7.609846 1.761927
vt -6.065995 1.761926
vt -6.065992 2.825960
vt -6.065992 3.195861
vt -2.401952 2.825959
vt -2.401952 3.195860
vt -1.301807 -0.815798
vt -1.301807 -1.110137
vt -1.301807 0.794921
vt -0.155343 -0.815798
vt -0.155343 0.759359
vt -0.155343 -1.110138
vt -2.401952 1.761926
vt -1.301806 1.761926
vt -1.301806 2.825959
vt -1.301806 3.195859
vt 0.903086 -0.815799
vt 0.903086 -1.110138
vt 0.903086 0.727212
vt -0.155342 2.825959
vt -0.155342 3.195859
vt 2.047564 -0.815799
vt 2.047565 0.692133
vt 2.047564 -1.110138
vt -0.155343 1.761926
vt 0.903086 1.761925
vt 0.903087 2.825959
vt 0.903087 3.195859
vt 3.153975 -0.815799
vt 3.153975 -1.110138
vt 3.153975 0.658531
vt 2.047565 2.825959
vt 2.047565 3.195859
vt 4.302921 -0.815799
vt 4.302921 0.623414
vt 4.302921 -1.110138
vt 2.047565 1.761924
vt 3.153976 1.761924
vt 3.153976 2.825959
vt 3.153976 3.195859
vt 5.178579 -0.815799
vt 5.178579 -1.110138
vt 5.178579 0.596835
vt 6.523827 1.761924
vt 7.691965 1.761924
vt 7.691965 2.825957
vt 7.798690 3.793072
vt 6.650855 3.793072
vt 6.650855 3.615849
vt 7.798690 3.615849
vt 7.691967 3.195858
vt 6.435546 -0.307168
vt 7.691963 -0.307169
vt 7.691965 0.676288
vt 6.435546 0.598966
vt 4.008615 3.438627
vt 4.008615 3.261405
vt 5.152272 3.261404
vt 5.152272 3.438626
vt 8.950707 4.501965
vt 10.094364 4.501965
vt 10.094364 4.679186
vt 8.950707 4.679186
vt 7.798690 3.970295
vt 6.650855 3.970295
vt 6.650855 3.793072
vt 7.798690 3.793072
vt 8.946527 4.147518
vt 8.946527 4.324741
vt 7.799745 4.324741
vt 7.799745 4.147518
vt 6.650855 3.793072
vt 5.503020 3.793072
vt 5.503020 3.615849
vt 6.650855 3.615849
vt 7.798690 4.324741
vt 6.651907 4.324741
vt 6.651907 4.147518
vt 7.798690 4.147518
vt 10.094364 3.793072
vt 8.946527 3.793072
vt 8.946527 3.615849
vt 10.094364 3.615849
vt -0.816617 4.905752
vt -0.520232 4.905752
vt -0.520232 5.905209
vt -0.816617 5.905209
vt -1.409389 4.932362
vt -1.409388 6.047142
vt -1.705773 6.047142
vt -1.705774 4.932362
vt -1.113003 5.905209
vt -1.113003 4.905752
vt -0.816617 4.905752
vt -0.816617 5.905209
vt -1.113003 4.932362
vt -1.113003 6.047143
vt -1.409388 6.047143
vt -1.409388 4.932362
vt 2.987919 6.290182
vt 2.987919 6.473412
vt 1.803795 6.473412
vt 1.803795 6.290183
vt 2.204029 4.953519
vt 2.204029 6.022900
vt 1.907644 6.022900
vt 1.907644 4.953519
vt 1.803795 6.106952
vt 2.987919 6.106952
vt 2.987919 6.290182
vt 1.803795 6.290182
vt 1.907644 4.953519
vt 1.907644 6.022900
vt 1.611258 6.022900
vt 1.611259 4.953519
vt 3.499377 6.490901
vt 3.499377 6.329985
vt 4.681450 6.329985
vt 4.681450 6.490901
vt 3.491056 4.954270
vt 3.491056 6.030743
vt 3.194671 6.030743
vt 3.194671 4.954270
vt 4.681450 6.329984
vt 3.499377 6.329985
vt 3.499377 6.169068
vt 4.681450 6.169068
vt 3.787442 4.940381
vt 3.787441 6.016852
vt 3.491056 6.016852
vt 3.491056 4.940381
vt 4.913834 6.363378
vt 4.913834 6.203662
vt 6.099376 6.203662
vt 6.099376 6.363378
vt 5.243097 4.828589
vt 5.243097 5.888772
vt 4.946712 5.888772
vt 4.946712 4.828589
vt 6.099376 6.203662
vt 4.913834 6.203662
vt 4.913834 6.043946
vt 6.099376 6.043946
vt 5.539482 4.828589
vt 5.539482 5.888772
vt 5.243097 5.888772
vt 5.243097 4.828589
vt 7.431515 6.364525
vt 6.247170 6.364526
vt 6.247170 6.199521
vt 7.431515 6.199521
vt 6.391480 4.828288
vt 6.391480 5.899216
vt 6.095094 5.899216
vt 6.095094 4.828288
vt 7.431515 6.199521
vt 6.247170 6.199521
vt 6.247170 6.034516
vt 7.431515 6.034516
vt 6.687866 4.828288
vt 6.687866 5.899216
vt 6.391480 5.899216
vt 6.391480 4.828288
vt 9.333811 6.387767
vt 8.149726 6.387767
vt 8.149726 6.226067
vt 9.333811 6.226067
vt 8.148997 4.953956
vt 8.148997 6.010425
vt 7.852612 6.010425
vt 7.852612 4.953956
vt 8.149726 6.064366
vt 9.333811 6.064366
vt 9.333811 6.226066
vt 8.149726 6.226067
vt 8.445383 4.953956
vt 8.445383 6.010425
vt 8.148997 6.010425
vt 8.148997 4.953956
vt 8.838387 -0.843510
vt -8.753502 1.761927
vt 8.838387 -1.110138
vt 10.094362 -1.110139
vt 10.094362 -0.843511
vt -9.598362 2.825961
vt -9.598360 1.761927
vt -9.598360 0.878533
vt -9.598362 -0.815797
vt -9.598360 3.195862
vt -9.598362 -1.110136
vn 0.0000 0.0000 1.0000
vn -1.0000 0.0000 0.0000
vn 1.0000 0.0000 0.0000
vn 0.0018 -1.0000 0.0000
vn 0.0000 1.0000 0.0000
vn 0.0000 -1.0000 0.0000
usemtl Parede
s off
f 141/1/1 3/2/1 5/3/1 137/4/1
f 8/5/2 9/6/2 12/7/2 13/8/2
f 140/9/1 2/10/1 3/2/1 141/1/1
f 13/8/2 12/7/2 14/11/2 15/12/2
f 9/6/2 8/5/2 16/13/2 17/14/2
f 128/15/1 9/16/1 17/17/1 131/18/1
f 10/19/3 11/20/3 19/21/3 18/22/3
f 10/23/3 22/24/3 21/25/3 11/26/3
f 14/27/4 21/28/4 22/29/4 15/30/4
f 73/31/1 74/32/1 24/33/1 20/34/1
f 73/31/1 20/34/1 23/35/1 72/36/1
f 71/37/1 37/38/1 33/39/1 70/40/1
f 143/41/1 7/42/1 6/43/1 138/44/1
f 38/45/1 36/46/1 31/47/1 32/48/1
f 127/49/1 38/45/1 32/48/1 126/50/1
f 125/51/1 28/52/1 38/45/1 127/49/1
f 137/4/1 5/3/1 7/42/1 143/41/1
f 69/53/1 29/54/1 37/38/1 71/37/1
f 50/55/1 42/56/1 43/57/1 51/58/1
f 50/55/1 52/59/1 44/60/1 42/56/1
f 58/61/1 60/62/1 52/59/1 50/55/1
f 58/61/1 50/55/1 51/58/1 59/63/1
f 47/64/1 55/65/1 54/66/1 46/67/1
f 66/68/1 58/61/1 59/63/1 67/69/1
f 66/68/1 68/70/1 60/62/1 58/61/1
f 53/71/1 61/72/1 63/73/1 55/65/1
f 55/65/1 63/73/1 62/74/1 54/66/1
f 20/34/1 24/33/1 68/70/1 66/68/1
f 20/34/1 66/68/1 67/69/1 23/35/1
f 63/73/1 71/37/1 70/40/1 62/74/1
f 37/38/1 78/75/1 77/76/1 33/39/1
f 83/77/1 73/31/1 72/36/1 82/78/1
f 83/77/1 84/79/1 74/32/1 73/31/1
f 91/80/1 92/81/1 84/79/1 83/77/1
f 91/80/1 83/77/1 82/78/1 90/82/1
f 76/83/1 85/84/1 87/85/1 78/75/1
f 78/75/1 87/85/1 86/86/1 77/76/1
f 99/87/1 91/80/1 90/82/1 98/88/1
f 99/87/1 100/89/1 92/81/1 91/80/1
f 87/85/1 95/90/1 94/91/1 86/86/1
f 107/92/1 108/93/1 100/89/1 99/87/1
f 107/92/1 99/87/1 98/88/1 106/94/1
f 93/95/1 101/96/1 103/97/1 95/90/1
f 95/90/1 103/97/1 102/98/1 94/91/1
f 115/99/1 107/92/1 106/94/1 114/100/1
f 115/99/1 116/101/1 108/93/1 107/92/1
f 103/97/1 111/102/1 110/103/1 102/98/1
f 123/104/1 124/105/1 116/101/1 115/99/1
f 123/104/1 115/99/1 114/100/1 122/106/1
f 109/107/1 117/108/1 119/109/1 111/102/1
f 111/102/1 119/109/1 118/110/1 110/103/1
f 11/111/1 123/104/1 122/106/1 19/112/1
f 11/111/1 21/113/1 124/105/1 123/104/1
f 119/109/1 127/49/1 126/50/1 118/110/1
f 26/114/1 133/115/1 136/116/1 36/46/1
f 49/117/2 48/118/2 53/119/2 55/120/2
f 36/46/1 136/116/1 134/121/1 31/47/1
f 12/122/1 129/123/1 130/124/1 14/125/1
f 9/16/1 128/15/1 129/123/1 12/122/1
f 53/126/5 48/127/5 40/128/5 45/129/5
f 136/116/1 143/41/1 138/44/1 134/121/1
f 129/123/1 140/9/1 141/1/1 130/124/1
f 41/130/6 49/131/6 55/132/6 47/133/6
f 40/134/3 41/135/3 47/136/3 45/137/3
f 69/138/5 64/139/5 56/140/5 61/141/5
f 65/142/2 64/143/2 69/144/2 71/145/2
f 57/146/6 65/147/6 71/148/6 63/149/6
f 56/150/3 57/151/3 63/152/3 61/153/3
f 76/154/5 75/155/5 30/156/5 29/157/5
f 79/158/2 75/159/2 76/160/2 78/161/2
f 39/162/6 79/163/6 78/164/6 37/165/6
f 30/166/3 39/167/3 37/168/3 29/169/3
f 93/170/5 88/171/5 80/172/5 85/173/5
f 89/174/2 88/175/2 93/176/2 95/177/2
f 81/178/6 89/179/6 95/180/6 87/181/6
f 80/182/3 81/183/3 87/184/3 85/185/3
f 109/186/5 104/187/5 96/188/5 101/189/5
f 105/190/2 104/191/2 109/192/2 111/193/2
f 97/194/6 105/195/6 111/196/6 103/197/6
f 96/198/3 97/199/3 103/200/3 101/201/3
f 125/202/5 120/203/5 112/204/5 117/205/5
f 121/206/2 120/207/2 125/208/2 127/209/2
f 113/210/6 121/211/6 127/212/6 119/213/6
f 112/214/3 113/215/3 119/216/3 117/217/3
f 28/218/5 26/219/5 25/220/5 27/221/5
f 34/222/2 25/223/2 26/224/2 36/225/2
f 35/226/6 34/227/6 36/228/6 38/229/6
f 27/230/3 35/231/3 38/232/3 28/233/3
f 142/234/5 132/235/5 133/236/5 137/237/5
f 139/238/2 142/239/2 137/240/2 143/241/2
f 135/242/6 139/243/6 143/244/6 136/245/6
f 132/246/3 135/247/3 136/248/3 133/249/3
f 140/9/1 129/123/1 128/15/1 144/250/1
f 130/124/1 141/1/1 137/4/1 133/115/1
f 14/125/1 130/124/1 133/115/1 26/114/1
f 21/113/1 14/125/1 26/114/1 28/52/1
f 124/105/1 21/113/1 28/52/1 125/51/1
f 116/101/1 124/105/1 125/51/1 117/108/1
f 108/93/1 116/101/1 117/108/1 109/107/1
f 100/89/1 108/93/1 109/107/1 101/96/1
f 92/81/1 100/89/1 101/96/1 93/95/1
f 84/79/1 92/81/1 93/95/1 85/84/1
f 74/32/1 84/79/1 85/84/1 76/83/1
f 24/33/1 74/32/1 76/83/1 29/54/1
f 68/70/1 24/33/1 29/54/1 69/53/1
f 60/62/1 68/70/1 69/53/1 61/72/1
f 52/59/1 60/62/1 61/72/1 53/71/1
f 44/60/1 52/59/1 53/71/1 45/251/1
f 145/252/1 144/250/1 128/15/1 131/18/1
f 144/250/1 145/252/1 4/253/1 1/254/1
f 140/9/1 144/250/1 1/254/1 2/10/1
f 45/251/1 47/64/1 151/255/1 149/256/1
f 42/56/1 44/60/1 148/257/1 146/258/1
f 44/60/1 45/251/1 149/256/1 148/257/1
f 47/64/1 46/67/1 150/259/1 151/255/1
f 43/57/1 42/56/1 146/258/1 147/260/1
