# Blender v2.90.0 OBJ File: 'laneira_prototipo.blend'
# www.blender.org
mtllib parede_full_02_1.mtl
o pilares_1andar.009_Plane.002
v 39.922649 7.646635 9.873467
v 39.922649 7.646635 -1.170830
v 39.922649 -0.576783 9.873467
v 39.922649 -0.456419 -1.170830
v 40.179554 7.646635 9.873467
v 40.179554 7.646635 -1.170830
v 40.179554 -0.576783 9.873467
v 40.179554 -0.456419 -1.170830
vt -2.910855 2.693152
vt 3.910856 2.693151
vt 3.910855 -1.644842
vt -2.910856 -1.709280
vt -2.910855 2.693152
vt -2.910856 -1.709280
vt 3.910855 -1.644842
vt 3.910856 2.693151
vn -1.0000 0.0000 0.0000
vn 1.0000 0.0000 0.0000
vn 0.0000 1.0000 0.0000
vn 0.0000 0.0000 1.0000
vn 0.0000 0.0000 -1.0000
vn 0.0000 -0.9999 -0.0109
usemtl Parede
s off
f 1/1/1 2/2/1 4/3/1 3/4/1
f 5/5/2 7/6/2 8/7/2 6/8/2
f 1/1/3 5/5/3 6/8/3 2/2/3
f 3/4/4 7/6/4 5/5/4 1/1/4
f 2/2/5 6/8/5 8/7/5 4/3/5
f 4/3/6 8/7/6 7/6/6 3/4/6
