# Blender v2.90.0 OBJ File: 'laneira_prototipo.blend'
# www.blender.org
mtllib telhado_full.mtl
o pilares_1andar.004_Plane.020
v 5.624942 7.535665 10.390661
v 11.644659 9.944632 4.443563
v 5.624942 7.535665 -1.760084
v 11.644659 9.944632 4.187014
v 40.597179 7.535665 -1.760083
v 34.577469 9.944632 4.187014
v 40.597179 7.535666 10.390659
v 34.577469 9.944632 4.443563
v 5.563360 7.841087 10.452044
v 11.599167 10.255501 4.489756
v 5.563360 7.841087 -1.821467
v 11.599167 10.255501 4.140821
v 40.658760 7.841087 -1.821465
v 34.622959 10.255501 4.140821
v 40.658760 7.841089 10.452042
v 34.622959 10.255501 4.489757
vt 4.014454 13.240137
vt -5.200558 13.240137
vt -0.871613 8.854258
vt -0.677048 8.854258
vt -5.200560 -12.240137
vt 4.014449 -12.240134
vt -0.677050 -7.854261
vt -0.871615 -7.854261
vt 4.426254 0.321054
vt 21.134775 0.321051
vt 25.520647 5.012549
vt 0.040377 5.012557
vt 0.108007 -4.150780
vt 25.588282 -4.150784
vt 21.202406 0.178163
vt 4.493887 0.178166
vt 4.014454 13.240137
vt -0.677048 8.854258
vt -0.871613 8.854258
vt -5.200558 13.240137
vt -5.200560 -12.240137
vt -0.871615 -7.854261
vt -0.677050 -7.854261
vt 4.014449 -12.240134
vt 4.426254 0.321054
vt 0.040377 5.012557
vt 25.520647 5.012549
vt 21.134775 0.321051
vt 0.108007 -4.150780
vt 4.493887 0.178166
vt 21.202406 0.178163
vt 25.588282 -4.150784
vn 0.3715 -0.9284 0.0000
vn -0.3715 -0.9284 0.0000
vn 0.0000 -1.0000 0.0000
vn 0.0000 -0.9268 -0.3754
vn -0.0000 -0.9268 0.3754
vn -0.3714 0.9285 0.0000
vn 0.3714 0.9285 -0.0000
vn 0.0000 1.0000 0.0000
vn -0.0000 0.9269 0.3753
vn 0.0000 0.9269 -0.3753
vn 0.0000 -0.1970 0.9804
vn 0.9803 -0.1977 0.0000
vn -0.9803 -0.1977 0.0000
vn 0.0000 -0.1970 -0.9804
usemtl Material.001
s off
f 1/1/1 3/2/1 4/3/1 2/4/1
f 5/5/2 7/6/2 8/7/2 6/8/2
f 4/3/3 6/8/3 8/7/3 2/4/3
f 2/9/4 8/10/4 7/11/4 1/12/4
f 3/13/5 5/14/5 6/15/5 4/16/5
f 9/17/6 10/18/6 12/19/6 11/20/6
f 13/21/7 14/22/7 16/23/7 15/24/7
f 12/19/8 10/18/8 16/23/8 14/22/8
f 10/25/9 9/26/9 15/27/9 16/28/9
f 11/29/10 12/30/10 14/31/10 13/32/10
f 7/11/11 15/27/11 9/26/11 1/12/11
f 5/5/12 13/21/12 15/24/12 7/6/12
f 1/1/13 9/17/13 11/20/13 3/2/13
f 3/13/14 11/29/14 13/32/14 5/14/14
