# Blender v2.90.0 OBJ File: ''
# www.blender.org
mtllib segundopiso.mtl
o segundopiso_Plane.022
v 20.143137 3.846311 9.990047
v 20.143137 3.846311 -1.487811
v 20.143137 3.694736 9.990047
v 20.143137 3.694736 -1.487811
v 6.403471 3.846311 9.990047
v 6.403471 3.694736 9.990047
v 10.080146 3.846311 9.990047
v 10.080146 3.694736 9.990047
v 10.080146 3.846311 -1.487811
v 10.080146 3.694736 -1.487811
v 20.143137 3.846311 3.946948
v 20.143137 3.694736 3.946948
v 6.403471 3.694736 3.946948
v 6.403471 3.846311 3.946948
v 10.080146 3.694736 3.946948
v 10.080146 3.846311 3.946948
vt 0.768107 0.516000
vt 1.000000 0.516000
vt 1.000000 1.000000
vt 0.768107 1.000000
vt 0.768107 0.516000
vt 0.768107 1.000000
vt 1.000000 1.000000
vt 1.000000 0.516000
vt 0.768107 0.000000
vt 0.768107 0.000000
vt 1.000000 0.000000
vt 1.000000 0.000000
vt 0.683109 0.000000
vt 0.683109 0.000000
vt 0.683109 0.516000
vt 0.683109 0.516000
vt 0.000000 0.000000
vt 0.000000 0.000000
vt 0.000000 0.000000
vt 0.000000 0.000000
vt 0.000000 0.000000
vt 0.000000 0.000000
vn 0.0000 1.0000 0.0000
vn 0.0000 -1.0000 0.0000
vn 1.0000 0.0000 0.0000
vn 0.0000 0.0000 1.0000
vn 0.0000 0.0000 -1.0000
vn -1.0000 0.0000 0.0000
usemtl None
s off
f 16/1/1 11/2/1 2/3/1 9/4/1
f 15/5/2 10/6/2 4/7/2 12/8/2
f 11/2/3 12/8/3 4/7/3 2/3/3
f 7/9/4 8/10/4 3/11/4 1/12/4
f 2/3/5 4/7/5 10/6/5 9/4/5
f 5/13/4 6/14/4 8/10/4 7/9/4
f 5/13/1 7/9/1 16/1/1 14/15/1
f 6/14/2 13/16/2 15/5/2 8/10/2
f 1/12/3 3/11/3 12/8/3 11/2/3
f 8/10/2 15/5/2 12/8/2 3/11/2
f 7/9/1 1/12/1 11/2/1 16/1/1
f 16/17/5 15/18/5 13/19/5 14/20/5
f 9/21/6 10/22/6 15/18/6 16/17/6
f 13/16/6 6/14/6 5/13/6 14/15/6
