# Blender v2.90.0 OBJ File: ''
# www.blender.org
mtllib telhado.mtl
o telhado_Plane.020
v 6.345825 7.666502 10.412116
v 12.365542 10.075469 4.465018
v 6.345825 7.666502 -1.738629
v 12.365542 10.075469 4.208468
v 41.318062 7.666502 -1.738628
v 35.298351 10.075469 4.208468
v 41.318062 7.666503 10.412114
v 35.298351 10.075469 4.465018
vt 0.000000 0.000000
vt 1.000000 0.000000
vt 1.000000 1.000000
vt 0.000000 1.000000
vt 0.000000 0.000000
vt 1.000000 0.000000
vt 1.000000 1.000000
vt 0.000000 1.000000
vn -0.3715 0.9284 0.0000
vn 0.3715 0.9284 -0.0000
vn 0.0000 1.0000 0.0000
vn -0.0000 0.9268 0.3754
vn 0.0000 0.9268 -0.3754
usemtl None
s off
f 1/1/1 2/2/1 4/3/1 3/4/1
f 5/5/2 6/6/2 8/7/2 7/8/2
f 4/3/3 2/2/3 8/7/3 6/6/3
f 2/2/4 1/1/4 7/8/4 8/7/4
f 3/4/5 4/3/5 6/6/5 5/5/5
