# Blender v2.90.0 OBJ File: 'laneira_prototipo.blend'
# www.blender.org
mtllib Sitio_Amoreza_15.mtl
o Sitio_Amoreza_15_Sitio_Amoreza_15.002
v 27.644245 -0.422738 7.359967
v 27.644245 -0.422738 -1.268076
v 27.644245 7.585984 7.359967
v 27.644245 3.031779 7.359967
v 27.644245 3.031779 -1.268075
v 27.644245 7.585984 2.243347
v 27.644245 -0.422738 2.243347
v 27.644245 3.031779 2.243347
v 27.644245 7.585984 -1.268075
v 27.644245 7.585984 0.504603
v 27.644245 3.031779 0.504603
v 27.644245 -0.422738 0.504603
vt 0.451820 0.424316
vt 0.451820 0.985197
vt 0.805871 0.985197
vt 0.805871 0.424316
vt 0.451820 0.000000
vt 0.805871 0.000000
vt 0.331505 0.424316
vt 0.331505 0.985197
vt 0.208843 0.424316
vt 0.208843 0.985197
vt 0.208843 0.000000
vt 0.331505 0.000000
vn 1.0000 0.0000 0.0000
usemtl Sitio_Amoreza_15
s off
f 8/1/1 6/2/1 3/3/1 4/4/1
f 7/5/1 8/1/1 4/4/1 1/6/1
f 11/7/1 10/8/1 6/2/1 8/1/1
f 5/9/1 9/10/1 10/8/1 11/7/1
f 2/11/1 5/9/1 11/7/1 12/12/1
