# Blender v2.90.0 OBJ File: ''
# www.blender.org
mtllib chao_terreo.mtl
o chao_terreo_Plane.027
v 6.377120 -0.265993 9.997917
v 6.377120 -0.265993 -5.488504
v 6.377118 -0.265993 -0.080934
v 6.377123 -0.265993 4.501386
v 40.156399 -0.413572 9.997917
v 40.156399 -0.413572 -5.488504
v 40.156391 -0.413572 -0.080934
v 40.156399 -0.413572 4.501386
v 7.654090 -0.413572 9.997915
v 7.654090 -0.413572 4.501387
v 6.377118 -0.265993 2.428570
v 40.156391 -0.413572 2.428570
v 6.377120 -0.265993 8.478998
v 40.156399 -0.413572 8.479757
v 7.654090 -0.413572 8.479017
v 47.899891 -0.413572 9.997917
v 47.899891 -0.413572 -5.488504
v 47.899879 -0.413572 -0.080934
v 47.899891 -0.413572 4.501386
v 47.899879 -0.413572 2.428570
v 47.899891 -0.413572 8.479757
v 5.284815 -0.264973 18.486969
v 5.284815 -0.264973 13.573851
v 6.377118 -0.264973 13.573851
v 5.284818 -0.265993 8.478998
v 5.284815 -0.265993 2.428570
v 5.284821 -0.265993 4.501386
v 5.284815 -0.265993 -0.080934
v 5.284818 -0.265993 -5.488504
v 5.284818 -0.265993 9.997917
v 6.377118 -0.264973 18.486969
v 10.101127 -0.413572 9.997915
v 10.101127 -0.413572 -5.488503
v 10.101127 -0.413572 -0.080933
v 10.101127 -0.413572 4.501387
v 10.101127 -0.413572 2.428570
v 10.101127 -0.413572 8.479073
v 7.654090 -0.266685 -5.488503
v 7.654090 -0.266685 -0.080933
v 7.654090 -0.266685 4.501387
v 7.654090 -0.266685 2.428570
v 10.101127 -0.266685 -5.488503
v 10.101127 -0.266685 -0.080933
v 10.101127 -0.266685 4.501387
v 10.101127 -0.266685 2.428570
v 40.156399 -0.267525 9.997917
v 7.654090 -0.267525 9.997915
v 47.899891 -0.267525 9.997917
v 7.654090 -0.266504 13.573849
v 40.156395 -0.266504 13.573851
v 47.899879 -0.266504 13.573851
v 7.654090 -0.266504 18.486967
v 40.156395 -0.266504 18.486969
v 47.899879 -0.266504 18.486969
v 10.101127 -0.267525 9.997915
v 10.101127 -0.266504 13.573849
v 10.101127 -0.266504 18.486967
vt 0.579348 0.500000
vt 1.000000 0.500000
vt 1.000000 1.000000
vt 0.579348 1.000000
vt 0.579348 0.366836
vt 1.000000 0.366836
vt 0.579348 0.075353
vt 1.000000 0.075353
vt 1.000000 0.233671
vt 0.579348 0.233671
vt 0.533523 0.075353
vt 0.533523 0.000000
vt 0.545850 0.000000
vt 0.545850 0.075353
vt 0.533523 0.233671
vt 0.545850 0.233671
vt 0.579348 0.000000
vt 1.000000 0.000000
vt 0.533523 0.233671
vt 0.533523 0.075353
vt 1.000000 0.500000
vt 1.000000 1.000000
vt 1.000000 0.366836
vt 1.000000 0.000000
vt 1.000000 0.075353
vt 1.000000 0.233671
vt 0.000000 0.000000
vt 0.000000 0.000000
vt 0.000000 0.000000
vt 0.000000 0.000000
vt 0.000000 0.000000
vt 0.000000 0.000000
vt 0.000000 0.000000
vt 0.000000 0.000000
vt 0.000000 0.000000
vt 0.000000 0.000000
vt 0.000000 0.000000
vt 0.000000 0.000000
vt 0.533523 0.000000
vt 0.000000 0.000000
vt 0.000000 0.000000
vt 0.545850 0.000000
vt 0.000000 0.000000
vt 0.000000 0.000000
vt 0.579348 0.000000
vt 0.579348 0.233671
vt 0.545850 0.233671
vt 0.579348 0.366836
vt 0.545850 0.366836
vt 0.579348 0.500000
vt 0.545850 0.500000
vt 0.579348 1.000000
vt 0.545850 1.000000
vt 0.000000 0.000000
vt 0.000000 0.000000
vt 0.000000 0.000000
vt 0.000000 0.000000
vt 0.000000 0.000000
vt 0.000000 0.000000
vt 0.000000 0.000000
vt 0.000000 0.000000
vt 0.000000 0.000000
vt 0.000000 0.000000
vt 0.000000 0.000000
vt 0.000000 0.000000
vt 0.000000 0.000000
vt 0.000000 0.000000
vt 1.000000 0.000000
vt 1.000000 0.000000
vn 0.0000 1.0000 0.0000
vn 0.1148 0.9934 0.0000
vn 0.0012 1.0000 -0.0003
vn 0.0000 1.0000 -0.0003
vn -0.0000 0.0000 -1.0000
vn 0.0000 0.0000 1.0000
vn 1.0000 0.0000 0.0000
vn 0.0005 1.0000 0.0000
vn 0.0012 1.0000 0.0000
usemtl Material.004
s off
f 34/1/1 7/2/1 6/3/1 33/4/1
f 36/5/1 12/6/1 7/2/1 34/1/1
f 37/7/1 14/8/1 8/9/1 35/10/1
f 13/11/2 1/12/2 9/13/2 15/14/2
f 35/10/1 8/9/1 12/6/1 36/5/1
f 4/15/2 13/11/2 15/14/2 10/16/2
f 32/17/1 5/18/1 14/8/1 37/7/1
f 13/11/1 4/15/1 27/19/1 25/20/1
f 6/3/1 7/2/1 18/21/1 17/22/1
f 7/2/1 12/6/1 20/23/1 18/21/1
f 14/8/1 5/18/1 16/24/1 21/25/1
f 12/6/1 8/9/1 19/26/1 20/23/1
f 8/9/1 14/8/1 21/25/1 19/26/1
f 11/27/1 3/28/1 28/29/1 26/30/1
f 49/31/3 47/32/3 1/33/3 24/34/3
f 24/34/4 1/33/4 30/35/4 23/36/4
f 3/28/1 2/37/1 29/38/1 28/29/1
f 1/12/1 13/11/1 25/20/1 30/39/1
f 31/40/1 24/34/1 23/36/1 22/41/1
f 9/13/5 1/12/5 47/42/5
f 4/43/1 11/27/1 26/30/1 27/44/1
f 32/17/5 9/13/5 47/42/5 55/45/5
f 9/13/1 32/17/1 37/7/1 15/14/1
f 10/16/6 35/10/6 44/46/6 40/47/6
f 15/14/1 37/7/1 35/10/1 10/16/1
f 40/47/1 44/46/1 45/48/1 41/49/1
f 41/49/1 45/48/1 43/50/1 39/51/1
f 39/51/1 43/50/1 42/52/1 38/53/1
f 36/5/7 34/1/7 43/50/7 45/48/7
f 10/16/6 40/47/6 4/15/6
f 35/10/7 36/5/7 45/48/7 44/46/7
f 11/27/8 4/43/8 40/54/8 41/55/8
f 34/1/7 33/4/7 42/52/7 43/50/7
f 3/28/8 11/27/8 41/55/8 39/56/8
f 2/37/8 3/28/8 39/56/8 38/57/8
f 55/58/4 47/32/4 49/31/4 56/59/4
f 48/60/4 46/61/4 50/62/4 51/63/4
f 51/63/1 50/62/1 53/64/1 54/65/1
f 56/59/1 49/31/1 52/66/1 57/67/1
f 50/62/1 56/59/1 57/67/1 53/64/1
f 46/61/4 55/58/4 56/59/4 50/62/4
f 5/18/5 32/17/5 55/45/5 46/68/5
f 16/24/5 5/18/5 46/68/5 48/69/5
f 52/66/9 49/31/9 24/34/9 31/40/9
