# Blender v2.90.0 OBJ File: ''
# www.blender.org
mtllib parede_interna.mtl
o parede_interna_Plane.021
v 19.949707 7.700636 -1.207484
v 20.043701 7.700636 -1.207484
v 19.949707 3.812299 -1.207484
v 20.043701 3.812299 -1.207484
v 19.949707 7.700636 9.967510
v 20.043701 7.700636 9.967510
v 19.949707 3.812299 9.967510
v 20.043701 3.812299 9.967510
vt 0.000000 0.000000
vt 0.000000 0.000000
vt 0.000000 0.000000
vt 0.000000 0.000000
vt 0.000000 0.000000
vt 0.000000 0.000000
vt 0.000000 0.000000
vt 0.000000 0.000000
vn 0.0000 0.0000 1.0000
vn 0.0000 0.0000 -1.0000
vn 1.0000 0.0000 0.0000
vn -1.0000 0.0000 0.0000
vn 0.0000 1.0000 0.0000
vn 0.0000 -1.0000 0.0000
usemtl None
s off
f 8/1/1 6/2/1 5/3/1 7/4/1
f 3/5/2 1/6/2 2/7/2 4/8/2
f 4/8/3 2/7/3 6/2/3 8/1/3
f 3/5/4 7/4/4 5/3/4 1/6/4
f 1/6/5 5/3/5 6/2/5 2/7/5
f 4/8/6 8/1/6 7/4/6 3/5/6
