# Blender v2.90.0 OBJ File: 'laneira_prototipo.blend'
# www.blender.org
mtllib vidro03.mtl
o pilares_1andar_Plane.011
v 27.643894 2.236737 7.371068
v 27.621119 2.236737 7.371068
v 27.643894 3.032321 7.371068
v 27.621119 3.032321 7.371068
v 27.643894 -0.460620 7.371068
v 27.621119 -0.460620 7.371068
v 27.643894 2.236737 2.241621
v 27.621119 2.236737 2.241621
v 27.643894 3.032321 2.241621
v 27.621119 3.032321 2.241621
v 27.643894 -0.460620 2.241621
v 27.621119 -0.460620 2.241621
v 27.621119 -0.460620 7.349470
v 27.621119 2.236737 7.349470
v 27.621119 3.032321 7.349470
v 27.643894 3.032321 7.349470
v 27.643894 2.236737 7.349470
v 27.643894 -0.460620 7.349470
v 20.096888 2.236737 7.371068
v 20.096888 3.032321 7.371068
v 20.096888 -0.460620 7.371068
v 20.096888 -0.460620 7.349470
v 20.096888 2.236737 7.349470
v 20.096888 3.032321 7.349470
v 27.643894 2.236737 0.506180
v 27.621119 2.236737 0.506180
v 27.643894 3.032321 0.506180
v 27.621119 3.032321 0.506180
v 27.643894 -0.460620 0.506180
v 27.621119 -0.460620 0.506180
v 27.643894 2.236737 -1.174301
v 27.621119 2.236737 -1.174301
v 27.643894 3.032321 -1.174301
v 27.621119 3.032321 -1.174301
v 27.643894 -0.460620 -1.174301
v 27.621119 -0.460620 -1.174301
v 27.643894 7.601478 7.370894
v 27.621119 7.601478 7.370894
v 27.643894 7.601478 2.241448
v 27.621119 7.601478 2.241448
v 27.621119 7.601478 7.349297
v 27.643894 7.601478 7.349297
v 20.096888 7.601478 7.370894
v 20.096888 7.601478 7.349297
v 27.643894 7.601478 0.506007
v 27.621119 7.601478 0.506007
v 27.643894 7.601478 -1.174474
v 27.621119 7.601478 -1.174474
v 27.621119 3.753711 2.241594
v 27.621119 3.753711 7.349442
v 20.096888 3.753711 7.349442
v 27.643894 3.753711 2.241594
v 27.621119 3.753711 7.371040
v 27.643894 3.753711 7.371040
v 27.643894 3.753711 -1.174328
v 27.621119 3.753711 -1.174328
v 27.621119 3.753711 0.506153
v 27.643894 3.753711 0.506153
v 27.643894 3.753711 7.349442
v 20.096888 3.753711 7.371040
v 15.843131 2.236737 7.371068
v 15.843131 3.032321 7.371068
v 15.843131 -0.460620 7.371068
v 15.843131 -0.460620 7.349470
v 15.843131 2.236737 7.349470
v 15.843131 3.032321 7.349470
v 15.843131 3.753711 7.349442
v 15.843131 3.753711 7.371040
vt 0.000000 1.000000
vt 0.000000 0.000000
vt 0.000000 0.000000
vt 0.000000 1.000000
vt 0.000000 0.000000
vt 0.000000 0.000000
vt 0.000000 0.000000
vt 0.000000 0.000000
vt 0.000000 0.000000
vt 0.000000 0.000000
vt 0.000000 1.000000
vt 0.000000 1.000000
vt 0.000000 1.000000
vt 0.000000 1.000000
vt 0.000000 1.000000
vt 0.000000 1.000000
vt 0.000000 1.000000
vt 0.000000 1.000000
vt 0.000000 0.000000
vt 0.000000 0.000000
vt 0.000000 1.000000
vt 0.000000 1.000000
vt 0.000000 0.000000
vt 0.000000 0.000000
vt 0.000000 1.000000
vt 0.000000 0.000000
vt 0.000000 0.000000
vt 0.000000 0.000000
vt 0.000000 0.000000
vt 0.000000 0.000000
vt 0.000000 0.000000
vt 0.000000 0.000000
vt 0.000000 0.000000
vt 0.000000 0.000000
vt 0.000000 0.000000
vt 0.000000 0.000000
vt 0.000000 0.000000
vt 0.000000 0.000000
vt 0.000000 0.000000
vt 0.000000 1.000000
vt 0.000000 0.000000
vt 0.000000 0.000000
vt 0.000000 1.000000
vt 0.000000 0.000000
vt 0.000000 1.000000
vt 0.000000 1.000000
vt 0.000000 1.000000
vt 0.000000 0.000000
vt 0.000000 0.000000
vt 0.000000 1.000000
vt 0.000000 0.000000
vt 0.000000 0.000000
vt 0.000000 0.000000
vt 0.000000 0.000000
vt 0.000000 0.000000
vt 0.000000 1.000000
vt 0.000000 1.000000
vt 0.000000 0.000000
vt 0.000000 0.000000
vt 0.000000 1.000000
vt 0.000000 1.000000
vt 0.000000 0.000000
vt 0.000000 0.000000
vt 0.000000 1.000000
vt 0.000000 0.000000
vt 0.000000 0.000000
vt 0.000000 1.000000
vt 0.000000 0.000000
vt 0.000000 0.000000
vt 0.000000 0.000000
vt 0.000000 0.000000
vt 0.000000 0.000000
vt 0.000000 0.000000
vt 0.000000 0.000000
vn 0.0000 1.0000 0.0000
vn -1.0000 -0.0000 0.0000
vn 0.0000 0.0000 -1.0000
vn 0.0000 0.0000 1.0000
vn 1.0000 0.0000 0.0000
vn 0.0000 -1.0000 0.0000
usemtl Material
s off
f 18/1/1 13/2/1 6/3/1 5/4/1
f 6/3/1 13/2/1 22/5/1 21/6/1
f 58/7/2 27/8/2 9/9/2 52/10/2
f 52/11/2 59/12/2 42/13/2 39/14/2
f 16/15/2 17/16/2 1/17/2 3/18/2
f 17/16/2 18/1/2 5/4/2 1/17/2
f 5/4/3 6/3/3 2/19/3 1/17/3
f 1/17/3 2/19/3 4/20/3 3/18/3
f 11/21/4 7/22/4 8/23/4 12/24/4
f 7/22/4 9/25/4 10/26/4 8/23/4
f 7/22/2 11/21/2 18/1/2 17/16/2
f 9/25/2 7/22/2 17/16/2 16/15/2
f 51/27/4 50/28/4 41/29/4 44/30/4
f 8/23/5 10/26/5 15/31/5 14/32/5
f 12/24/5 8/23/5 14/32/5 13/2/5
f 11/21/1 12/24/1 13/2/1 18/1/1
f 23/33/4 24/34/4 66/35/4 65/36/4
f 24/34/4 51/27/4 67/37/4 66/35/4
f 14/32/4 15/31/4 24/34/4 23/33/4
f 2/19/3 6/3/3 21/6/3 19/38/3
f 13/2/4 14/32/4 23/33/4 22/5/4
f 4/20/3 2/19/3 19/38/3 20/39/3
f 29/40/3 30/41/3 26/42/3 25/43/3
f 25/43/3 26/42/3 28/44/3 27/45/3
f 35/46/4 31/47/4 32/48/4 36/49/4
f 31/47/4 33/50/4 34/51/4 32/48/4
f 50/28/5 49/52/5 40/53/5 41/29/5
f 25/43/2 27/45/2 33/50/2 31/47/2
f 29/40/2 25/43/2 31/47/2 35/46/2
f 30/41/1 29/40/1 35/46/1 36/49/1
f 26/42/5 30/41/5 36/49/5 32/48/5
f 28/44/5 26/42/5 32/48/5 34/51/5
f 41/29/6 38/54/6 43/55/6 44/30/6
f 41/29/6 42/13/6 37/56/6 38/54/6
f 40/53/6 39/14/6 42/13/6 41/29/6
f 45/57/6 46/58/6 48/59/6 47/60/6
f 54/61/3 53/62/3 38/54/3 37/56/3
f 56/63/4 55/64/4 47/60/4 48/59/4
f 9/25/1 27/45/1 28/44/1 10/26/1
f 53/62/3 60/65/3 43/55/3 38/54/3
f 57/66/5 56/63/5 48/59/5 46/58/5
f 60/65/5 51/27/5 44/30/5 43/55/5
f 55/64/2 58/67/2 45/57/2 47/60/2
f 59/12/2 54/61/2 37/56/2 42/13/2
f 46/58/6 45/68/6 39/69/6 40/53/6
f 57/66/5 46/58/5 40/53/5 49/52/5
f 28/44/5 57/66/5 49/52/5 10/26/5
f 16/15/2 3/18/2 54/61/2 59/12/2
f 33/50/2 27/45/2 58/67/2 55/64/2
f 20/39/3 19/38/3 61/70/3 62/71/3
f 28/44/5 34/51/5 56/63/5 57/66/5
f 4/20/3 20/39/3 60/65/3 53/62/3
f 34/51/4 33/50/4 55/64/4 56/63/4
f 3/18/3 4/20/3 53/62/3 54/61/3
f 15/31/5 10/26/5 49/52/5 50/28/5
f 24/34/4 15/31/4 50/28/4 51/27/4
f 9/25/2 16/15/2 59/12/2 52/11/2
f 45/68/2 58/7/2 52/10/2 39/69/2
f 64/72/5 65/36/5 61/70/5 63/73/5
f 65/36/5 66/35/5 62/71/5 61/70/5
f 62/71/5 66/35/5 67/37/5 68/74/5
f 19/38/3 21/6/3 63/73/3 61/70/3
f 51/27/6 60/65/6 68/74/6 67/37/6
f 22/5/4 23/33/4 65/36/4 64/72/4
f 60/65/3 20/39/3 62/71/3 68/74/3
f 21/6/1 22/5/1 64/72/1 63/73/1
o pilares_1andar.012_Plane.005
v 9.639312 -0.460620 4.156564
v 9.616537 -0.460620 4.156564
v 9.639312 3.032321 4.156564
v 9.616537 3.032321 4.156564
v 9.639312 2.236737 4.156564
v 9.616537 2.236737 4.156564
v 9.639312 -0.460620 4.918443
v 9.616537 -0.460620 4.918443
v 9.639312 3.032321 4.918443
v 9.616537 3.032321 4.918443
v 9.639312 2.236737 4.918443
v 9.616537 2.236737 4.918443
v 9.616537 2.236737 7.371068
v 9.641658 2.236737 7.371068
v 9.616537 3.032321 7.371068
v 9.641658 3.032321 7.371068
v 9.616537 -0.460620 7.371068
v 9.641658 -0.460620 7.371068
v 9.616537 2.236737 6.641527
v 9.639312 2.236737 6.641527
v 9.616537 3.032321 6.641527
v 9.639312 3.032321 6.641527
v 9.616537 -0.460620 6.641527
v 9.639312 -0.460620 6.641527
v 9.641658 -0.460620 7.349470
v 9.641658 2.236737 7.349470
v 9.641658 3.032321 7.349470
v 9.616537 3.032321 7.349470
v 9.616537 2.236737 7.349470
v 9.616537 -0.460620 7.349470
v 11.556780 2.236737 7.371068
v 11.556780 3.032321 7.371068
v 11.556780 -0.460620 7.371068
v 11.556780 -0.460620 7.349470
v 11.556780 2.236737 7.349470
v 11.556780 3.032321 7.349470
v 9.639312 3.032321 7.371068
v 9.639312 2.236737 7.371068
v 9.639312 -0.460620 7.371068
v 9.639312 -0.460620 7.349470
v 9.639312 3.032321 7.349470
v 9.639312 2.236737 7.349470
v 9.639312 3.754992 4.156564
v 9.616537 3.754992 4.156564
v 9.639312 3.754992 4.918443
v 9.616537 3.754992 4.918443
v 9.616537 3.754992 7.371068
v 9.641658 3.754992 7.371068
v 9.616537 3.754992 6.641527
v 9.639312 3.754992 6.641527
v 9.641658 3.754992 7.349470
v 9.616537 3.754992 7.349470
v 11.556780 3.754992 7.371068
v 11.556780 3.754992 7.349470
v 9.639312 3.754992 7.371068
v 9.639312 3.754992 7.349470
vt 0.000000 1.000000
vt 0.000000 1.000000
vt 0.000000 0.000000
vt 0.000000 0.000000
vt 0.000000 1.000000
vt 0.000000 0.000000
vt 0.000000 1.000000
vt 0.000000 0.000000
vt 0.000000 0.000000
vt 0.000000 1.000000
vt 0.000000 1.000000
vt 0.000000 0.000000
vt 0.000000 1.000000
vt 0.000000 1.000000
vt 0.000000 1.000000
vt 0.000000 1.000000
vt 0.000000 1.000000
vt 0.000000 0.000000
vt 0.000000 0.000000
vt 0.000000 1.000000
vt 0.000000 0.000000
vt 0.000000 0.000000
vt 0.000000 0.000000
vt 0.000000 0.000000
vt 0.000000 0.000000
vt 0.000000 0.000000
vt 0.000000 0.000000
vt 0.000000 0.000000
vt 0.000000 0.000000
vt 0.000000 0.000000
vt 0.000000 0.000000
vt 0.000000 0.000000
vt 0.000000 1.000000
vt 0.000000 1.000000
vt 0.000000 1.000000
vt 0.000000 0.000000
vt 0.000000 0.000000
vt 0.000000 1.000000
vt 0.000000 1.000000
vt 0.000000 0.000000
vt 0.000000 0.000000
vt 0.000000 0.000000
vt 0.000000 0.000000
vt 0.000000 0.000000
vt 0.000000 0.000000
vt 0.000000 0.000000
vt 0.000000 0.000000
vt 0.000000 0.000000
vt 0.000000 0.000000
vt 0.000000 0.000000
vt 0.000000 0.000000
vt 0.000000 0.000000
vt 0.000000 0.000000
vt 0.000000 1.000000
vt 0.000000 1.000000
vt 0.000000 0.000000
vt 0.000000 0.000000
vt 0.000000 0.000000
vt 0.000000 1.000000
vt 0.000000 0.000000
vn 0.0000 0.0000 -1.0000
vn 0.0000 0.0000 1.0000
vn -1.0000 0.0000 0.0000
vn 1.0000 0.0000 0.0000
vn 0.0000 -1.0000 0.0000
vn 0.0000 1.0000 0.0000
usemtl Material
s off
f 74/75/7 72/76/7 71/77/7 73/78/7
f 70/79/7 74/75/7 73/78/7 69/80/7
f 80/81/8 79/82/8 77/83/8 78/84/8
f 76/85/8 75/86/8 79/82/8 80/81/8
f 74/75/9 70/79/9 76/85/9 80/81/9
f 72/76/9 74/75/9 80/81/9 78/84/9
f 89/87/9 96/88/9 120/89/9 117/90/9
f 73/78/10 71/77/10 77/83/10 79/82/10
f 69/80/10 73/78/10 79/82/10 75/86/10
f 70/79/11 69/80/11 75/86/11 76/85/11
f 98/91/11 108/92/11 107/93/11 85/94/11
f 86/95/11 93/96/11 102/97/11 101/98/11
f 114/99/9 78/100/9 89/101/9 117/102/9
f 109/103/10 90/104/10 118/105/10 124/106/10
f 96/88/9 97/107/9 81/108/9 83/109/9
f 97/107/9 98/91/9 85/94/9 81/108/9
f 85/94/8 107/93/8 106/110/8 81/108/8
f 81/108/8 106/110/8 105/111/8 83/109/8
f 91/112/7 87/113/7 88/114/7 92/115/7
f 87/113/7 89/87/7 90/104/7 88/114/7
f 87/113/9 91/112/9 98/91/9 97/107/9
f 89/87/9 87/113/9 97/107/9 96/88/9
f 104/116/7 95/117/7 119/118/7 122/119/7
f 88/114/10 90/104/10 109/103/10 110/120/10
f 92/115/10 88/114/10 110/120/10 108/92/10
f 91/112/11 92/115/11 108/92/11 98/91/11
f 102/97/10 103/121/10 99/122/10 101/98/10
f 103/121/10 104/116/10 100/123/10 99/122/10
f 94/124/7 95/117/7 104/116/7 103/121/7
f 82/125/8 86/95/8 101/98/8 99/122/8
f 93/96/7 94/124/7 103/121/7 102/97/7
f 84/126/8 82/125/8 99/122/8 100/123/8
f 95/117/9 94/124/9 93/96/9 86/95/9 82/125/9 84/126/9
f 110/120/10 109/103/10 105/111/10 106/110/10
f 108/92/10 110/120/10 106/110/10 107/93/10
f 111/127/12 112/128/12 114/129/12 113/130/12
f 119/118/12 116/131/12 121/132/12 122/119/12
f 124/106/12 120/89/12 115/133/12 123/134/12
f 118/105/12 117/90/12 120/89/12 124/106/12
f 71/77/7 72/76/7 112/128/7 111/127/7
f 78/84/11 77/83/11 90/104/11 89/87/11
f 72/76/9 78/84/9 114/129/9 112/128/9
f 83/109/8 105/111/8 123/134/8 115/133/8
f 77/83/10 71/77/10 111/127/10 113/130/10
f 84/126/8 100/123/8 121/132/8 116/131/8
f 100/123/10 104/116/10 122/119/10 121/132/10
f 95/117/9 84/126/9 116/131/9 119/118/9
f 105/111/10 109/103/10 124/106/10 123/134/10
f 96/88/9 83/109/9 115/133/9 120/89/9
f 113/130/12 114/99/12 117/102/12 118/105/12
f 77/83/10 113/130/10 118/105/10 90/104/10
